<?xml version="1.0" standalone="no"?>
<!DOCTYPE svg PUBLIC "-//W3C//DTD SVG 1.1//EN" "http://www.w3.org/Graphics/SVG/1.1/DTD/svg11.dtd" >
<svg xmlns="http://www.w3.org/2000/svg">
<metadata>
<json>
<![CDATA[
{
	"fontFamily": "icomoon",
	"majorVersion": 1,
	"minorVersion": 0,
	"version": "Version 1.0",
	"fontId": "icomoon",
	"psName": "icomoon",
	"subFamily": "Regular",
	"fullName": "icomoon",
	"description": "Font generated by IcoMoon."
}
]]>
</json>
</metadata>
<defs>
<font id="icomoon" horiz-adv-x="1024">
<font-face units-per-em="1024" ascent="1024" descent="0" />
<missing-glyph horiz-adv-x="1024" />
<glyph unicode="&#x20;" horiz-adv-x="0" d="" />
<glyph unicode="&#xe900;" glyph-name="admin" data-tags="admin" horiz-adv-x="1102" d="M718.776 856.953c0-92.258-74.79-167.047-167.047-167.047s-167.047 74.79-167.047 167.047c0 92.258 74.79 167.047 167.047 167.047s167.047-74.79 167.047-167.047zM1058.65 89.255h-1012.21c-25.669 0-46.44-20.771-46.44-46.407s20.771-46.44 46.44-46.44h1012.21c25.637 0 46.44 20.771 46.44 46.44-0.033 25.637-20.803 46.407-46.44 46.407zM322.729 168.386h457.020c36.708 0 64.173 24.33 64.173 49.445s0 196.407 0 274.885-80.862 148.367-175.048 148.367c0 0-19.497-12.475-58.752-19.693-0.261-0.751-0.653-1.437-1.241-2.025l-57.348-54.082c-0.98-0.914-2.221-1.372-3.462-1.372-1.339 0-2.678 0.523-3.69 1.6l-50.947 54.017c-0.588 0.621-0.947 1.372-1.176 2.155-38.765 7.283-58.654 19.399-58.654 19.399-94.186 0-175.048-69.856-175.048-148.367s0-249.77 0-274.885 27.466-49.445 64.173-49.445zM524.916 553.754l21.489-22.795 24.918 23.514v-265.675c0-12.835-10.385-23.22-23.22-23.22s-23.22 10.385-23.22 23.22v264.957z" />
<glyph unicode="&#xe901;" glyph-name="automne" data-tags="automne" horiz-adv-x="988" d="M765.314 374.786l223.579 81.678-227.857 21.489 133.278 154.768-279.457-107.478 249.379 266.557-193.468-17.211 8.556 249.411-167.668-163.389-98.889 103.2-12.9-352.546-141.9 262.246-17.211-146.178-189.157 98.889 81.678-210.678h-133.278l245.068-262.279-81.678-85.957 196.733 15.741c-77.694-141.835-261.952-236.609-264.271-237.785-12.704-6.434-17.831-21.946-11.398-34.65 4.539-8.981 13.618-14.174 23.057-14.174 3.919 0 7.871 0.882 11.594 2.776 10.222 5.16 199.411 102.253 285.107 256.433l159.013-177.53-21.489 141.868 361.168 34.389-137.589 120.411z" />
<glyph unicode="&#xe902;" glyph-name="calendrier" data-tags="calendrier2" horiz-adv-x="903" d="M197.876 933.896h119.921c17.733 0 32.266 14.533 32.266 32.266v25.571c0 17.733-14.5 32.266-32.266 32.266h-119.921c-17.733 0-32.266-14.533-32.266-32.266v-25.571c0-17.733 14.533-32.266 32.266-32.266zM579.586 933.896h119.921c17.733 0 32.266 14.533 32.266 32.266v25.571c0 17.733-14.533 32.266-32.266 32.266h-119.921c-17.733 0-32.266-14.533-32.266-32.266v-25.571c0-17.733 14.5-32.266 32.266-32.266zM804.798 900.911h-707.999c-52.972 0-96.799-43.37-96.799-95.885v-98.171h901.597v98.171c0 52.514-43.827 95.885-96.799 95.885zM0 92.292c0-52.514 43.827-95.885 96.799-95.885h707.999c52.972 0 96.799 43.37 96.799 95.885v550.618h-901.597v-550.618zM644.674 491.344c0 12.769 9.438 22.828 28.315 22.828h72.763c18.876 0 28.315-10.059 28.315-22.828v-83.997c0-12.769-9.438-22.828-28.315-22.828h-72.763c-18.876 0-28.315 10.059-28.315 22.828v83.997zM644.674 231.090c0 12.769 9.438 22.828 28.315 22.828h72.763c18.876 0 28.315-10.059 28.315-22.828v-83.997c0-12.769-9.438-22.828-28.315-22.828h-72.763c-18.876 0-28.315 10.059-28.315 22.828v83.997zM386.249 491.344c0 12.769 9.438 22.828 28.315 22.828h72.763c18.876 0 28.315-10.059 28.315-22.828v-83.997c0-12.769-9.438-22.828-28.315-22.828h-72.763c-18.876 0-28.315 10.059-28.315 22.828v83.997zM386.249 231.090c0 12.769 9.438 22.828 28.315 22.828h72.763c18.876 0 28.315-10.059 28.315-22.828v-83.997c0-12.769-9.438-22.828-28.315-22.828h-72.763c-18.876 0-28.315 10.059-28.315 22.828v83.997zM127.857 491.344c0 12.769 9.438 22.828 28.315 22.828h72.763c18.876 0 28.315-10.059 28.315-22.828v-83.997c0-12.769-9.438-22.828-28.315-22.828h-72.795c-18.876 0-28.315 10.059-28.315 22.828v83.997zM127.857 231.090c0 12.769 9.438 22.828 28.315 22.828h72.763c18.876 0 28.315-10.059 28.315-22.828v-83.997c0-12.769-9.438-22.828-28.315-22.828h-72.795c-18.876 0-28.315 10.059-28.315 22.828v83.997z" />
<glyph unicode="&#xe903;" glyph-name="departement" data-tags="Fichier 1" horiz-adv-x="1281" d="M1236.221 1019.443c-24.737 0-44.918-19.855-44.918-44.592l-0.976-276.669h-1098.538l0.976 276.343c0 24.737-19.855 44.918-44.592 44.918-24.737 0.325-44.918-19.855-44.918-44.592l-3.255-930.258c0-24.737 19.855-44.918 44.592-44.918s44.918 19.855 44.918 44.592v23.761h1098.538v-23.435c0-24.737 19.855-44.918 44.592-44.918s44.918 19.855 44.918 44.592l3.255 930.258c0 24.737-19.855 44.918-44.592 44.918zM89.836 179.672l1.302 407.517h1098.863l-1.302-407.517h-1098.863zM766.535 1024h131.174c33.256 0 60.216-26.96 60.216-60.216v-131.174c0-33.256-26.96-60.216-60.216-60.216h-131.174c-33.256 0-60.216 26.96-60.216 60.216v131.174c0 33.256 26.96 60.216 60.216 60.216zM260.069 505.49h131.174c33.256 0 60.216-26.96 60.216-60.216v-131.174c0-33.256-26.96-60.216-60.216-60.216h-131.174c-33.256 0-60.216 26.96-60.216 60.216v131.174c0 33.256 26.96 60.216 60.216 60.216zM583.283 501.259h131.174c33.256 0 60.216-26.96 60.216-60.216v-131.174c0-33.256-26.96-60.216-60.216-60.216h-131.174c-33.256 0-60.216 26.96-60.216 60.216v131.174c0 33.256 26.96 60.216 60.216 60.216z" />
<glyph unicode="&#xe904;" glyph-name="collpri" data-tags="collpri" horiz-adv-x="1234" d="M1083.863 232.396c98.497 86.969 152.677 198.399 152.677 314.173 0 263.258-277.367 477.431-618.286 477.431-340.887 0-618.254-214.173-618.254-477.431s277.367-477.464 618.254-477.464c99.64 0 198.595 18.746 286.38 54.213l287.687-126.42c0.751-0.327 1.535-0.49 2.286-0.49 1.535 0 3.070 0.621 4.148 1.796 1.666 1.764 2.025 4.376 0.947 6.532l-115.839 227.661zM292.226 404.244h176.028c14.304 0 25.898-11.594 25.898-25.898s-11.594-25.931-25.898-25.931h-176.028c-14.304 0-25.898 11.594-25.898 25.931 0 14.304 11.594 25.898 25.898 25.898zM266.328 476.223c0 14.304 11.594 25.931 25.898 25.931h176.028c14.304 0 25.898-11.594 25.898-25.931 0-14.304-11.594-25.898-25.898-25.898h-176.028c-14.304-0.033-25.898 11.594-25.898 25.898zM292.226 306.367h176.028c14.304 0 25.898-11.594 25.898-25.898s-11.594-25.931-25.898-25.931h-176.028c-14.304 0-25.898 11.594-25.898 25.931 0 14.304 11.594 25.898 25.898 25.898zM761.003 678.476c0-11.953-6.466-18.419-17.44-18.419h-59.797c-10.973 0-17.44 6.466-17.44 18.419v57.185c0 11.953 6.466 18.419 17.44 18.419h59.797c10.973 0 17.44-6.466 17.44-18.419v-57.185zM683.799 612.081h59.797c10.973 0 17.44-6.466 17.44-18.419v-57.185c0-11.953-6.466-18.419-17.44-18.419h-59.797c-10.973 0-17.44 6.466-17.44 18.419v57.185c-0.033 11.953 6.434 18.419 17.44 18.419zM683.799 470.050h59.797c10.973 0 17.44-6.466 17.44-18.419v-57.185c0-11.953-6.466-18.419-17.44-18.419h-59.797c-10.973 0-17.44 6.466-17.44 18.419v57.185c-0.033 11.953 6.434 18.419 17.44 18.419zM682.982 283.931h59.765c10.973 0 17.44-6.466 17.44-18.419v-104.017c-30.829-6.695-62.508-11.136-94.676-13.357v117.374c0.033 11.953 6.499 18.419 17.472 18.419zM909.794 203.755c0.555 1.698 0.294 3.658-0.816 5.16-0.751 1.012-1.829 1.633-2.972 1.992 2.972 170.084 10.124 579.064 10.124 597.45 0 23.253-15.513 40.072-34.912 40.072h-320.965c-19.399 0-34.912-16.819-34.912-40.072 0-9.634-1.959-126.126-4.246-259.405h-294.186c-16.525 0-23.873-11.234-23.873-24.265v-219.268c-66.362 67.145-106.205 150.522-106.205 241.116 0 220.705 233.899 400.227 521.422 400.227s521.422-179.555 521.422-400.227c0-103.723-51.567-202.089-145.166-277.007-2.188-1.731-2.776-4.833-1.404-7.283l77.139-137.393-160.45 78.902z" />
<glyph unicode="&#xe905;" glyph-name="collpub" data-tags="collpub" horiz-adv-x="1234" d="M1083.863 232.396c98.497 86.969 152.677 198.399 152.677 314.173 0 263.258-277.367 477.431-618.286 477.431-340.887 0-618.254-214.173-618.254-477.431s277.367-477.464 618.254-477.464c99.64 0 198.595 18.746 286.38 54.213l287.687-126.42c0.751-0.327 1.535-0.49 2.286-0.49 1.535 0 3.070 0.621 4.148 1.796 1.666 1.764 2.025 4.376 0.947 6.532l-115.839 227.661zM292.226 404.244h176.028c14.304 0 25.898-11.594 25.898-25.898s-11.594-25.931-25.898-25.931h-176.028c-14.304 0-25.898 11.594-25.898 25.931 0 14.304 11.594 25.898 25.898 25.898zM266.328 476.223c0 14.304 11.594 25.931 25.898 25.931h176.028c14.304 0 25.898-11.594 25.898-25.931 0-14.304-11.594-25.898-25.898-25.898h-176.028c-14.304-0.033-25.898 11.594-25.898 25.898zM292.226 306.367h176.028c14.304 0 25.898-11.594 25.898-25.898s-11.594-25.931-25.898-25.931h-176.028c-14.304 0-25.898 11.594-25.898 25.931 0 14.304 11.594 25.898 25.898 25.898zM761.003 678.476c0-11.953-6.466-18.419-17.44-18.419h-59.797c-10.973 0-17.44 6.466-17.44 18.419v57.185c0 11.953 6.466 18.419 17.44 18.419h59.797c10.973 0 17.44-6.466 17.44-18.419v-57.185zM683.799 612.081h59.797c10.973 0 17.44-6.466 17.44-18.419v-57.185c0-11.953-6.466-18.419-17.44-18.419h-59.797c-10.973 0-17.44 6.466-17.44 18.419v57.185c-0.033 11.953 6.434 18.419 17.44 18.419zM683.799 470.050h59.797c10.973 0 17.44-6.466 17.44-18.419v-57.185c0-11.953-6.466-18.419-17.44-18.419h-59.797c-10.973 0-17.44 6.466-17.44 18.419v57.185c-0.033 11.953 6.434 18.419 17.44 18.419zM682.982 283.931h59.765c10.973 0 17.44-6.466 17.44-18.419v-104.017c-30.829-6.695-62.508-11.136-94.676-13.357v117.374c0.033 11.953 6.499 18.419 17.472 18.419zM909.794 203.755c0.555 1.698 0.294 3.658-0.816 5.16-0.751 1.012-1.829 1.633-2.972 1.992 2.972 170.084 10.124 579.064 10.124 597.45 0 23.253-15.513 40.072-34.912 40.072h-320.965c-19.399 0-34.912-16.819-34.912-40.072 0-9.634-1.959-126.126-4.246-259.405h-294.186c-0.588 0-0.98-0.261-1.535-0.294v162.932c0 6.172-4.997 11.169-11.169 11.169s-11.136-5.029-11.136-11.169v-406.171c-66.362 67.145-106.205 150.522-106.205 241.116 0 220.705 233.899 400.227 521.422 400.227s521.422-179.555 521.422-400.227c0-103.723-51.567-202.089-145.166-277.007-2.188-1.731-2.776-4.833-1.404-7.283l77.139-137.393-160.483 78.902zM359.502 720.67c-57.381-28.707-53.168 22.436-122.273-9.7v-117.015c61.626 31.123 73.971-17.374 132.789 7.871 3.854 2.025 5.846 4.866 5.846 9.504s0 100.653 0 100.653c-0.588 8.067-8.883 12.933-16.362 8.687z" />
<glyph unicode="&#xe906;" glyph-name="coordonnees" data-tags="coordonnees" horiz-adv-x="1009" d="M65.904 479.097h-29.131c-20.215 0-36.773-16.525-36.773-36.773v-136.675c0-20.215 16.558-36.773 36.773-36.773h29.131c20.215 0 36.773 16.558 36.773 36.773v136.675c0 20.248-16.525 36.773-36.773 36.773zM65.904 206.662h-29.131c-20.215 0-36.773-16.558-36.773-36.773v-136.675c0-20.215 16.558-36.773 36.773-36.773h29.131c20.215 0 36.773 16.558 36.773 36.773v136.675c0 20.215-16.525 36.773-36.773 36.773zM65.904 751.565h-29.131c-20.215 0-36.773-16.558-36.773-36.773v-136.675c0-20.215 16.558-36.773 36.773-36.773h29.131c20.215 0 36.773 16.558 36.773 36.773v136.675c0 20.215-16.525 36.773-36.773 36.773zM65.904 1024h-29.131c-20.215 0-36.773-16.558-36.773-36.773v-136.675c0-20.215 16.558-36.773 36.773-36.773h29.131c20.215 0 36.773 16.558 36.773 36.773v136.675c0 20.215-16.525 36.773-36.773 36.773zM899.539 1024h-763.060v-1027.592h763.060c59.83 0 109.275 49.967 109.275 110.32v806.953c0 60.352-49.445 110.32-109.275 110.32zM571.846 824.523c91.345 0 165.414-74.069 165.414-165.414s-74.069-165.414-165.414-165.414c-91.345 0-165.414 74.069-165.414 165.414s74.069 165.414 165.414 165.414zM862.44 252.808c0 0.033 0-0.229 0-0.98 0-1.078 0-3.135 0-6.956 0-24.886-27.204-48.955-63.52-48.955h-452.513c-36.349 0-63.52 24.102-63.52 48.955 0 3.821 0 5.878 0 6.956 0-0.033 0 0.196 0 0.98 0 2.874 0 13.259 0 45.689 0 77.727 80.045 146.897 173.317 146.897 0 0 40.039-24.494 117.341-24.494 77.335 0 115.61 24.494 115.61 24.494 93.272 0 173.317-69.17 173.317-146.897-0.033-32.43-0.033-42.815-0.033-45.689z" />
<glyph unicode="&#xe908;" glyph-name="dupli" data-tags="dupli" horiz-adv-x="817" d="M816.391 753.198c1.404 12.214-2.319 24.918-11.659 34.324l-220.737 223.448c-8.491 8.589-19.726 12.639-30.927 12.345-2.090 0.359-4.213 0.686-6.401 0.686h-319.496c-23.187 0-41.999-18.811-41.999-41.999v-144.186h-143.174c-23.187 0-41.999-18.811-41.999-41.966v-757.443c0-23.187 18.811-41.999 41.999-41.999h547.712c23.187 0 41.999 18.811 41.999 41.999v144.186h143.174c23.187 0 41.999 18.811 41.999 41.999v523.479c0 1.764-0.327 3.429-0.49 5.127zM589.939 885.464l94.97-96.146-94.97-0.784v96.93zM547.712 80.405h-463.715v673.413h236.772v-193.827c0-11.202 4.474-21.914 12.443-29.817 7.936-7.903 18.974-11.79 29.915-12.182l184.585 1.535v-439.123zM404.767 602.349v96.962l94.97-96.146-94.97-0.816zM732.884 266.557h-101.208v295.329c0.033 1.731-0.294 3.429-0.49 5.095 1.404 12.214-2.319 24.918-11.659 34.324l-220.705 223.481c-8.491 8.589-19.726 12.639-30.927 12.345-2.123 0.359-4.213 0.653-6.434 0.653h-92.292v102.22h236.772v-193.827c0-11.202 4.474-21.914 12.443-29.817 7.936-7.903 18.974-11.79 29.915-12.182l184.585 1.535v-439.156z" />
<glyph unicode="&#xe909;" glyph-name="email" data-tags="email" horiz-adv-x="1445" d="M1436.833 902.609c0 67.047-54.311 121.391-121.358 121.391h-1194.084c-7.609 0-15.023-0.882-22.273-2.253-2.449-0.457-4.768-1.143-7.152-1.764-4.768-1.176-9.438-2.58-13.978-4.344-2.547-0.98-4.997-1.992-7.479-3.135-4.344-2.025-8.491-4.311-12.573-6.826-2.057-1.274-4.18-2.449-6.172-3.854-5.127-3.625-9.961-7.609-14.5-11.986-0.621-0.588-1.306-1.045-1.894-1.633-5.029-5.062-9.536-10.614-13.651-16.525-1.241-1.829-2.253-3.821-3.429-5.715-2.58-4.213-4.997-8.491-7.087-13.031-1.176-2.58-2.155-5.225-3.168-7.903-0.816-2.188-1.894-4.213-2.613-6.466-0.653-2.253-0.914-4.507-1.502-6.76-0.653-2.678-1.306-5.323-1.796-8.099-1.012-5.715-1.535-11.43-1.731-17.178-0.033-1.306-0.392-2.58-0.392-3.919v-784.778c0-67.047 54.343-121.391 121.391-121.391h1193.954c67.047 0 121.391 54.343 121.391 121.391v783.798c0.033 0.327 0.098 0.653 0.098 0.98zM1315.344 902.609l-596.667-409.829-597.287 409.829h1193.954zM121.391 117.831v637.555l528.639-362.703c20.705-14.206 44.677-21.293 68.68-21.293s48.040 7.12 68.746 21.326l527.888 362.605v-637.522h-1193.954z" />
<glyph unicode="&#xe90a;" glyph-name="entreprise" data-tags="entreprise" horiz-adv-x="1332" d="M799.801 626.19c0-72.165-58.501-130.666-130.666-130.666s-130.666 58.501-130.666 130.666c0 72.165 58.501 130.666 130.666 130.666s130.666-58.501 130.666-130.666zM881.904 395.23c-23.579 36.185-69.366 62.116-120.117 62.116 0 0-30.242-19.334-91.313-19.334s-92.684 19.334-92.684 19.334c-50.882 0-96.766-26.061-120.313-62.443 37.361-3.037 72.795-17.505 101.045-41.607 32.691-27.89 51.437-65.806 51.437-104.049v-160.777h114.761v160.777c0 38.243 18.746 76.159 51.437 104.049 29.458 25.114 66.656 39.81 105.747 41.933zM480.828 534.126c0 72.175-58.491 130.666-130.666 130.666-72.175-0.033-130.666-58.524-130.666-130.666 0-72.175 58.491-130.666 130.666-130.666s130.666 58.491 130.666 130.666zM442.813 365.283c0 0-30.242-19.334-91.313-19.334s-92.684 19.334-92.684 19.334c-73.677 0-136.903-54.637-136.903-116.035s0-194.513 0-214.173c0-19.66 21.489-38.667 50.196-38.667h357.445c28.707 0 50.196 19.040 50.196 38.667 0 19.66 0 152.775 0 214.173s-63.259 116.035-136.936 116.035zM983.242 403.46c72.175 0 130.666 58.491 130.666 130.666s-58.491 130.666-130.666 130.666c-72.175 0-130.666-58.491-130.666-130.666 0.033-72.175 58.524-130.666 130.666-130.666zM1075.894 365.283c0 0-30.242-19.334-91.313-19.334s-92.684 19.334-92.684 19.334c-73.677 0-136.903-54.637-136.903-116.035s0-194.513 0-214.173c0-19.66 21.489-38.667 50.196-38.667h357.445c28.707 0 50.196 19.040 50.196 38.667 0 19.66 0 152.775 0 214.173s-63.259 116.035-136.936 116.035zM1314.299 683.146l-612.147 336.021c-11.496 6.303-25.408 6.466-37.067 0.392l-643.988-336.021c-19.236-10.026-26.682-33.769-16.656-52.972 7.022-13.423 20.673-21.097 34.846-21.097 6.107 0 12.345 1.437 18.125 4.474l625.341 326.289 593.727-325.897c19.007-10.451 42.88-3.494 53.331 15.545s3.527 42.848-15.513 53.266z" />
<glyph unicode="&#xe90b;" glyph-name="ete" data-tags="ete" horiz-adv-x="1015" d="M819.265 509.632c0-176.831-143.35-320.182-320.182-320.182s-320.182 143.35-320.182 320.182c0 176.831 143.35 320.182 320.182 320.182s320.182-143.35 320.182-320.182zM504.244 1024l-49.51-101.665h101.665zM358.294 886.345l-96.015 61.953 7.969-112.802zM186.087 760.578l-114.108 5.65 63.292-93.697zM101.665 562.865l-101.665-52.155 101.665-49.51zM65.676 252.677l112.802 7.969-50.849 88.047zM255.747 66.394l93.697 63.292-88.047 50.816zM760.219 948.298l-96.015-61.953 88.047-50.849zM950.552 766.228l-114.141-5.65 50.816-88.047zM912.635 461.625l100.751 49.085-100.751 51.698zM836.509 262.899l111.789-7.903-61.398 95.166zM667.045 133.082l92.88-62.737-5.617 113.096zM509.273-3.592l49.51 101.698h-101.665z" />
<glyph unicode="&#xe90c;" glyph-name="fournisseur" data-tags="fournisseur" horiz-adv-x="1303" d="M1261.132 937.521c23.873 0 43.24 19.366 43.24 43.24s-19.366 43.24-43.24 43.24h-411.168c-23.873 0-43.24-19.366-43.24-43.24v-664.139l-774.981-214.434c-23.024-6.368-36.512-30.176-30.144-53.2 5.291-19.17 22.697-31.711 41.639-31.711 3.821 0 7.707 0.523 11.561 1.568l806.692 223.219c0.621 0.163 1.078 0.588 1.698 0.784-1.731-10.941-2.907-22.077-2.907-33.507 0-117.406 95.493-212.899 212.899-212.899s212.899 95.493 212.899 212.899-95.493 212.899-212.899 212.899c-75.767 0-142.227-39.908-179.98-99.673v614.955h367.928zM1073.151 325.374c63.978 0 116.035-52.057 116.035-116.035s-52.057-116.035-116.035-116.035c-63.978 0-116.035 52.057-116.035 116.035s52.057 116.035 116.035 116.035zM163.814 277.465c6.434-20.738 25.539-34.095 46.244-34.095 4.344 0 8.752 0.588 13.129 1.829l444.838 125.049c12.573 3.56 23.187 12.018 29.425 23.481s7.577 24.984 3.723 37.459l-125.049 403.362c-7.903 25.539-35.108 39.81-60.581 31.94-25.539-7.903-39.843-35.042-31.94-60.581l27.76-89.582-351.534-98.824-28.543 92.031c-7.903 25.539-35.010 39.876-60.581 31.907-25.539-7.903-39.843-35.042-31.94-60.581l125.049-403.395zM242.357 351.207l-12.084 39.027 351.566 98.824 12.084-39.027-351.566-98.824zM540.070 623.74l13.063-42.162-351.566-98.791-13.063 42.162 351.566 98.791z" />
<glyph unicode="&#xe90e;" glyph-name="hiver" data-tags="hiver" horiz-adv-x="1017" d="M936.868 517.993c0.065 0.849 0.261 1.698 0.261 2.58 0 0.457-0.131 0.914-0.131 1.372l73.71 66.917c11.659 10.647 12.541 28.609 1.959 40.268s-28.609 12.541-40.268 1.959l-90.365-82.005h-65.643l42.423 38.504c11.659 10.614 12.541 28.609 1.959 40.268s-28.609 12.541-40.268 1.959l-88.961-80.699h-124.951l92.586 92.586 119.986 5.813c15.709 0.751 27.858 14.141 27.074 29.85-0.751 15.741-14.076 27.825-29.85 27.074l-57.185-2.776 46.407 46.407 121.881 5.911c15.709 0.751 27.858 14.141 27.074 29.85-0.751 15.741-14.076 27.792-29.85 27.074l-99.444-4.801c-0.327 0.359-0.555 0.751-0.882 1.078-0.621 0.621-1.339 1.078-1.992 1.633l-4.833 99.673c-0.751 15.709-13.978 27.727-29.85 27.074-15.709-0.751-27.858-14.141-27.074-29.85l5.65-116.394-53.788-53.788-3.233 66.46c-0.751 15.709-14.010 27.76-29.85 27.074-15.741-0.718-27.89-14.076-27.106-29.817l5.748-118.125-114.663-114.663v169.039l80.699 88.961c10.581 11.659 9.7 29.686-1.959 40.268s-29.621 9.7-40.268-1.959l-38.504-42.423v65.643l82.005 90.365c10.581 11.659 9.7 29.686-1.959 40.268s-29.621 9.7-40.268-1.959l-66.917-73.71c-0.457 0-0.882 0.098-1.372 0.098-0.882 0-1.698-0.196-2.58-0.261l-73.906 67.080c-11.659 10.581-29.523 9.732-40.268-1.959-10.581-11.659-9.7-29.686 1.959-40.268l86.283-78.315v-76.061l-49.281 44.709c-11.659 10.581-29.556 9.732-40.268-1.959-10.581-11.659-9.7-29.686 1.959-40.268l87.589-79.458v-162.181l-106.466 106.466-5.813 119.986c-0.751 15.709-14.141 27.858-29.85 27.074-15.741-0.751-27.825-14.076-27.074-29.85l2.776-57.217-46.407 46.407-5.944 121.881c-0.751 15.709-14.108 27.858-29.85 27.074s-27.792-14.076-27.074-29.85l4.833-99.444c-0.359-0.327-0.751-0.555-1.078-0.882-0.621-0.621-1.078-1.339-1.633-1.992l-99.706-4.833c-15.709-0.751-27.76-13.978-27.074-29.85 0.751-15.741 14.108-27.858 29.85-27.106l116.361 5.65 53.788-53.788-66.427-3.233c-15.709-0.751-27.76-14.010-27.074-29.85 0.751-15.709 14.141-27.858 29.85-27.074l118.125 5.748 88.308-88.308h-140.267l-88.961 80.666c-11.659 10.581-29.686 9.7-40.268-1.959s-9.7-29.621 1.959-40.268l42.423-38.504h-65.643l-90.365 82.005c-11.659 10.581-29.686 9.7-40.268-1.959s-9.7-29.621 1.959-40.268l73.71-66.917c0-0.425-0.098-0.849-0.098-1.339 0-0.882 0.196-1.698 0.261-2.58l-67.080-73.906c-10.581-11.659-9.732-29.523 1.959-40.268 11.659-10.581 29.686-9.7 40.268 1.959l78.315 86.283h76.061l-44.709-49.281c-10.581-11.659-9.732-29.556 1.959-40.268 11.659-10.581 29.686-9.7 40.268 1.959l79.458 87.589h159.797l-109.046-109.046-118.125 5.748c-15.741 0.751-29.099-11.365-29.85-27.074-0.686-15.839 11.365-29.099 27.074-29.85l66.46-3.233-53.821-53.821-116.394 5.65c-15.741 0.751-29.099-11.365-29.85-27.074-0.653-15.872 11.365-29.099 27.074-29.85l99.673-4.833c0.555-0.653 1.012-1.372 1.633-1.992 0.327-0.327 0.718-0.555 1.078-0.882l-4.768-99.477c-0.718-15.774 11.365-29.099 27.074-29.85 15.741-0.751 29.099 11.365 29.85 27.074l5.911 121.881 46.407 46.407-2.776-57.217c-0.751-15.774 11.365-29.099 27.074-29.85 15.741-0.751 29.099 11.365 29.85 27.074l5.813 119.986 106.466 106.466v-162.181l-87.589-79.458c-11.659-10.581-12.541-28.609-1.959-40.268 10.712-11.692 28.609-12.541 40.268-1.959l49.281 44.709v-76.061l-86.283-78.315c-11.659-10.581-12.541-28.609-1.959-40.268 10.745-11.692 28.609-12.541 40.268-1.959l73.906 67.080c0.849-0.065 1.698-0.261 2.58-0.261 0.457 0 0.914 0.131 1.372 0.131l66.917-73.71c10.647-11.659 28.609-12.541 40.268-1.959s12.541 28.609 1.959 40.268l-82.005 90.365v65.643l38.504-42.423c10.614-11.659 28.609-12.541 40.268-1.959s12.541 28.609 1.959 40.268l-80.699 88.961v169.039l114.663-114.663-5.748-118.125c-0.751-15.741 11.365-29.099 27.074-29.85 15.839-0.686 29.099 11.365 29.85 27.074l3.233 66.46 53.788-53.788-5.65-116.394c-0.751-15.741 11.365-29.099 27.074-29.85 15.872-0.653 29.099 11.365 29.85 27.074l4.833 99.673c0.653 0.555 1.372 1.012 1.992 1.633 0.327 0.327 0.555 0.718 0.882 1.078l99.444-4.833c15.774-0.718 29.099 11.365 29.85 27.074 0.751 15.741-11.365 29.099-27.074 29.85l-121.881 5.911-46.407 46.407 57.217-2.776c15.774-0.751 29.099 11.365 29.85 27.074 0.751 15.741-11.365 29.099-27.074 29.85l-119.986 5.813-113.324 113.324h144.48l79.458-87.589c10.581-11.659 28.609-12.541 40.268-1.959 11.692 10.712 12.541 28.609 1.959 40.268l-44.709 49.281h76.061l78.315-86.283c10.581-11.659 28.609-12.541 40.268-1.959 11.692 10.745 12.541 28.609 1.959 40.268l-67.015 73.971z" />
<glyph unicode="&#xe911;" glyph-name="particulier" data-tags="particulier" horiz-adv-x="1234" d="M1083.863 232.396c98.497 86.969 152.677 198.399 152.677 314.173 0 263.258-277.367 477.431-618.286 477.431-340.887 0-618.254-214.173-618.254-477.431s277.367-477.464 618.254-477.464c99.64 0 198.595 18.746 286.38 54.213l287.687-126.42c0.751-0.327 1.535-0.49 2.286-0.49 1.535 0 3.070 0.621 4.148 1.796 1.666 1.764 2.025 4.376 0.947 6.532l-115.839 227.661zM909.794 203.755c0.555 1.698 0.294 3.658-0.816 5.16-0.065 0.098-0.196 0.098-0.261 0.163 0 6.76 0 20.020 0 46.015 0 87.622-90.267 165.61-195.394 165.61 0 0-43.142-27.596-130.339-27.596s-132.331 27.596-132.331 27.596c-103.331 0-192.063-75.343-195.133-161.103-97.681 72.795-158.687 174.428-158.687 286.936 0 220.705 233.899 400.227 521.422 400.227s521.422-179.555 521.422-400.227c0-103.723-51.567-202.089-145.166-277.007-2.188-1.731-2.776-4.833-1.404-7.283l77.139-137.393-160.45 78.902zM762.561 704.593c23.671-100.247-38.406-200.702-138.653-224.373s-200.702 38.406-224.373 138.653c-23.671 100.247 38.406 200.702 138.653 224.373s200.702-38.406 224.373-138.653z" />
<glyph unicode="&#xe915;" glyph-name="printemps" data-tags="printemps" horiz-adv-x="1401" d="M385.226 774.188c55.241-22.882 81.474-86.214 58.591-141.455s-86.214-81.474-141.455-58.591c-55.241 22.882-81.474 86.214-58.591 141.455s86.214 81.474 141.455 58.591zM1354.371 919.722c0 0-0.033 0 0 0-1.078 0-122.142-235.858-528.345-373.055-156.564-52.874-138.667-194.415-48.661-286.772-10.81-19.497-20.477-39.582-27.955-60.842-42.619 98.432-115.545 171.848-177.432 220.607 0.588 0.555 1.306 0.947 1.862 1.535 26.453 26.453 26.453 69.334 0 95.754-2.809 2.809-5.911 5.193-9.046 7.381 26.192-16.558 59.895-12.182 83.997 9.275 29.262 26.061 33.899 68.321 0 95.754-12.084 9.797-24.853 17.146-39.19 19.007 17.276 0.033 34.52 6.63 47.714 19.824 26.453 26.453 26.453 69.334 0 95.754-13.684 13.684-31.809 20.15-49.739 19.66 3.070 2.188 6.107 4.474 8.85 7.25 26.453 26.453 26.453 69.334 0 95.754-24.298 24.298-62.312 25.996-88.83 5.65 9.569 24.33 4.605 53.037-15.055 72.697-26.453 26.453-69.334 26.453-95.754 0-4.605-4.605-8.099-9.797-11.071-15.219 1.862 19.432-4.311 39.517-19.203 54.376-26.453 26.453-69.334 26.453-95.754 0-10.973-10.843-17.113-24.592-19.040-38.765-0.392 0.425-0.686 0.914-1.11 1.339-26.453 26.453-69.334 26.453-95.754 0-23.645-23.645-25.996-60.32-7.348-86.773-26.616 22.567-66.362 21.587-91.443-3.527-26.453-26.453-26.453-69.334 0-95.754 5.683-5.683 12.247-9.928 19.138-13.161-0.163-0.425-0.327-0.882-0.49-1.339-24.755 10.777-54.605 6.172-74.853-14.076-26.453-26.453-26.453-69.334 0-95.754 11.724-11.724 26.682-17.929 41.999-19.268-9.732-3.201-18.942-8.393-26.649-16.133-26.453-26.453-26.453-69.334 0-95.754 19.301-19.301 47.289-24.33 71.326-15.48-17.276-26.29-14.37-61.92 8.752-85.042 26.061-26.061 67.995-26.323 94.513-1.012-7.642-23.449-2.417-50.196 16.231-68.811 26.453-26.453 69.334-26.453 95.754 0 11.169 11.169 17.342 25.343 19.072 39.908 2.711-12.116 8.622-23.677 18.027-33.083 26.453-26.453 69.334-26.453 95.754 0 14.631 14.631 20.869 34.291 19.203 53.396 78.804-49.934 251.305-182.723 251.305-388.437 0-10.059 5.029-19.464 13.39-25.049 5.029-3.364 10.908-5.062 16.786-5.062 5.029 0 10.124 1.241 14.664 3.788 16.46 9.144 15.937 25.408 15.611 36.153-2.188 68.844 10.973 130.6 38.471 184.585 17.701-11.888 36.839-21.946 57.054-29.588 21.261-8.034 44.089-11.986 67.897-11.986 112.508 0 246.701 88.079 337.752 249.248 110.254 195.264 161.985 402.97 67.603 491.050zM343.761 497.026c-97.844 0-177.171 79.327-177.171 177.171s79.327 177.171 177.171 177.171c97.844 0 177.171-79.327 177.171-177.171s-79.327-177.171-177.171-177.171zM1228.767 461.363c-84.062-148.824-201.077-215.414-279.783-215.414-15.97 0-30.895 2.58-44.35 7.675-16.133 6.107-31.058 14.174-44.709 23.481 39.647 50.065 94.742 91.215 164.728 122.207 15.186 6.728 22.044 24.526 15.317 39.712s-24.526 22.077-39.712 15.317c-77.4-34.291-139.32-80.797-184.813-137.23-25.8 30.405-40.562 64.598-40.072 92.064 0.229 12.475 0.914 50.424 71.914 74.396 257.412 86.936 408.359 212.377 490.201 303.33 1.241-79.947-36.969-198.497-108.719-325.538z" />
<glyph unicode="&#xe916;" glyph-name="repertoire" data-tags="repertoire" horiz-adv-x="1009" d="M65.839 479.619h-29.099c-20.215 0-36.741-16.525-36.741-36.741v-136.544c0-20.215 16.525-36.741 36.741-36.741h29.099c20.215 0 36.741 16.525 36.741 36.741v136.544c0 20.215-16.525 36.741-36.741 36.741zM65.839 207.413h-29.099c-20.215 0-36.741-16.525-36.741-36.741v-136.544c0-20.215 16.525-36.741 36.741-36.741h29.099c20.215 0 36.741 16.525 36.741 36.741v136.544c0 20.215-16.525 36.741-36.741 36.741zM65.839 751.793h-29.099c-20.215 0-36.741-16.525-36.741-36.741v-136.544c0-20.215 16.525-36.741 36.741-36.741h29.099c20.215 0 36.741 16.525 36.741 36.741v136.544c0 20.215-16.525 36.741-36.741 36.741zM65.839 1024h-29.099c-20.215 0-36.741-16.525-36.741-36.741v-136.544c0-20.215 16.525-36.741 36.741-36.741h29.099c20.215 0 36.741 16.525 36.741 36.741v136.544c0 20.215-16.525 36.741-36.741 36.741zM898.69 1023.053h-762.342v-1026.613h762.342c59.797 0 109.177 49.902 109.177 110.222v806.169c0 60.287-49.379 110.222-109.177 110.222zM861.558 702.675c0-51.339-41.999-93.305-93.305-93.305h-393.271c-51.339 0-93.305 41.999-93.305 93.305v53.102c0 51.306 41.999 93.305 93.305 93.305h393.271c51.339 0 93.305-41.999 93.305-93.305v-53.102z" />
<glyph unicode="&#xe917;" glyph-name="societe" data-tags="societe" horiz-adv-x="1234" d="M1083.863 232.396c98.497 86.969 152.677 198.399 152.677 314.173 0 263.258-277.367 477.431-618.286 477.431-340.887 0-618.254-214.173-618.254-477.431s277.367-477.464 618.254-477.464c99.64 0 198.595 18.746 286.38 54.213l287.687-126.42c0.751-0.327 1.535-0.49 2.286-0.49 1.535 0 3.070 0.621 4.148 1.796 1.666 1.764 2.025 4.376 0.947 6.532l-115.839 227.661zM493.989 611.102h59.765c10.973 0 17.44-6.466 17.44-18.419v-57.185c0-11.953-6.466-18.419-17.44-18.419h-59.765c-10.973 0-17.44 6.466-17.44 18.419v57.185c-0.033 11.953 6.434 18.419 17.44 18.419zM476.517 677.496v57.185c0 11.953 6.466 18.419 17.44 18.419h59.765c10.973 0 17.44-6.466 17.44-18.419v-57.185c0-11.953-6.466-18.419-17.44-18.419h-59.765c-10.973 0-17.44 6.466-17.44 18.419zM493.989 469.071h59.765c10.973 0 17.44-6.466 17.44-18.419v-57.185c0-11.953-6.466-18.419-17.44-18.419h-59.765c-10.973 0-17.44 6.466-17.44 18.419v57.185c-0.033 11.953 6.434 18.419 17.44 18.419zM571.52 148.138v116.394c0 11.953 6.466 18.419 17.44 18.419h59.765c10.973 0 17.44-6.466 17.44-18.419v-116.329c-15.905-1.11-31.874-1.894-47.942-1.894-15.741 0-31.254 0.751-46.701 1.829zM683.995 611.102h59.797c10.973 0 17.44-6.466 17.44-18.419v-57.185c0-11.953-6.466-18.419-17.44-18.419h-59.797c-10.973 0-17.44 6.466-17.44 18.419v57.185c-0.033 11.953 6.434 18.419 17.44 18.419zM666.523 677.496v57.185c0 11.953 6.466 18.419 17.44 18.419h59.797c10.973 0 17.44-6.466 17.44-18.419v-57.185c0-11.953-6.466-18.419-17.44-18.419h-59.797c-10.973 0-17.44 6.466-17.44 18.419zM683.995 469.071h59.797c10.973 0 17.44-6.466 17.44-18.419v-57.185c0-11.953-6.466-18.419-17.44-18.419h-59.797c-10.973 0-17.44 6.466-17.44 18.419v57.185c-0.033 11.953 6.434 18.419 17.44 18.419zM909.794 203.755c0.555 1.698 0.294 3.658-0.816 5.16-0.686 0.947-1.731 1.47-2.776 1.862 3.005 170.607 10.124 578.247 10.124 596.634 0 23.253-15.513 40.072-34.912 40.072h-513.127c-19.399 0-34.912-16.786-34.912-40.072 0-18.158-6.956-416.524-9.993-590.592-136.642 72.24-226.55 193.043-226.55 329.751 0 220.705 233.899 400.227 521.422 400.227s521.422-179.555 521.422-400.227c0-103.723-51.567-202.089-145.166-277.007-2.188-1.731-2.776-4.833-1.404-7.283l77.139-137.393-160.45 78.87z" />
<glyph unicode="&#xe918;" glyph-name="xls_creer" data-tags="xls_creer" horiz-adv-x="769" d="M770.866 693.27c1.731 14.925-2.841 30.438-14.239 41.933l-269.561 272.892c-10.353 10.483-24.102 15.447-37.753 15.088-2.58 0.425-5.16 0.816-7.838 0.816h-390.201c-28.315 0-51.273-22.959-51.273-51.273v-925.013c0-28.315 22.959-51.273 51.273-51.273h668.907c28.315 0 51.273 22.959 51.273 51.273v639.318c0.033 2.123-0.359 4.18-0.588 6.238zM494.316 854.83l115.97-117.406-115.97-0.98v118.386zM668.907 98.987h-566.327v822.433h289.156v-236.707c0-13.684 5.454-26.78 15.186-36.414 9.7-9.634 23.155-14.402 36.545-14.86l225.44 1.894v-536.347zM172.305 535.792v-159.307c0-1.176 0.229-2.286 0.359-3.429-0.131-1.143-0.359-2.253-0.359-3.429v-156.694c0-17.799 14.435-32.234 32.234-32.234h358.914c17.799 0 32.234 14.435 32.234 32.234v159.307c0 1.176-0.229 2.286-0.359 3.429 0.131 1.143 0.359 2.253 0.359 3.429v156.694c0 17.799-14.435 32.234-32.234 32.234h-358.947c-17.766-0.033-32.201-14.468-32.201-32.234zM236.74 341.475h126.747v-96.309h-126.747v96.309zM404.505 245.133v96.309h126.681v-96.309h-126.681zM531.219 382.918h-126.681v120.64h126.681v-120.64zM363.487 503.558v-120.64h-126.747v120.64h126.747z" />
<glyph unicode="&#xe919;" glyph-name="xls_envoi" data-tags="xls_envoi" horiz-adv-x="769" d="M770.866 693.27c1.731 14.925-2.841 30.438-14.239 41.966l-269.561 272.892c-10.353 10.483-24.102 15.447-37.753 15.088-2.58 0.392-5.16 0.784-7.838 0.784h-390.201c-28.315 0-51.273-22.959-51.273-51.273v-925.013c0-28.315 22.959-51.273 51.273-51.273h668.907c28.315 0 51.273 22.959 51.273 51.273v639.318c0.033 2.123-0.359 4.18-0.588 6.238zM494.316 854.83l115.97-117.406-115.97-0.98v118.386zM391.736 921.42v-236.707c0-13.684 5.454-26.78 15.186-36.414 9.7-9.634 22.044-14.696 36.545-14.892l225.44 1.894v-193.206l-73.252-38.635v132.299c0 17.799-14.435 32.234-32.234 32.234h-358.914c-17.799 0-32.234-14.435-32.234-32.234v-130.698l-69.725 36.969v479.391h289.189zM531.219 382.918h-126.714v120.64h126.714v-120.64zM363.487 382.918h-126.747v120.64h126.747v-120.64zM363.487 341.475v-37.72l-71.195 37.72h71.195zM404.505 341.475h73.644l-73.644-38.863v38.863zM668.907 98.987h-566.327v226.942l258.36-136.969c14.99-7.936 32.952-7.969 47.975-0.033l259.992 137.197v-227.138z" />
<glyph unicode="&#xe91a;" glyph-name="xls_ouvrir" data-tags="xls_ouvrir" horiz-adv-x="1141" d="M1137.194 346.21c-7.642 14.174-22.436 23.024-38.537 23.024h-144.97v110.777c0 24.167-19.595 43.762-43.762 43.762h-111.789v212.769c0 9.406-3.135 18.419-8.654 25.898-1.894 3.396-4.082 6.695-6.956 9.602l-227.138 229.947c-7.969 13.096-22.534 22.012-38.765 22.012h-332.853c-24.167 0-43.762-19.595-43.762-43.762v-346.504h-96.244c-24.167 0-43.762-19.595-43.762-43.762v-549.835c0-3.201 0.392-6.303 1.045-9.308 0.098-0.457 0.294-0.914 0.425-1.372 0.784-3.070 1.894-5.944 3.266-8.72 0.229-0.425 0.261-0.914 0.49-1.339 0.229-0.457 0.621-0.784 0.882-1.208 1.535-2.645 3.331-5.127 5.389-7.381 0.359-0.392 0.621-0.849 1.012-1.208 2.417-2.482 5.16-4.605 8.132-6.466 0.751-0.457 1.502-0.816 2.286-1.241 2.384-1.306 4.899-2.384 7.511-3.233 0.914-0.294 1.796-0.621 2.711-0.849 3.429-0.849 6.956-1.47 10.647-1.47h866.163c14.696 0 28.38 7.381 36.479 19.628l188.732 285.335c8.85 13.488 9.634 30.731 2.025 44.905zM866.163 436.282v-67.047h-68.027v67.047h68.027zM561.722 871.029l90.496-91.606-90.496-0.751v92.358zM474.198 936.476v-201.926c0-11.659 4.67-22.861 12.933-31.058s19.432-12.475 31.189-12.671l192.325 1.6v-323.154h-62.475v98.726c0 1.012-0.196 1.959-0.294 2.939 0.098 0.98 0.294 1.927 0.294 2.939v133.67c0 15.186-12.312 27.498-27.498 27.498h-306.171c-15.186 0-27.498-12.312-27.498-27.498v-135.924c0-1.012 0.196-1.959 0.294-2.939-0.098-0.98-0.294-1.927-0.294-2.939v-96.473h-54.539c-1.698 0-3.298-0.425-4.964-0.621v567.829h246.701zM485.106 369.267v72.469h108.099v-72.469h-108.099zM593.172 477.105h-108.099v102.906h108.099v-102.906zM450.096 477.105h-108.099v102.906h108.099v-102.906zM341.965 441.736h108.099v-72.469h-108.099v72.469zM140.006 546.242v-281.22l-52.482-79.392v360.613h52.482zM886.411 83.932h-761.264l90.561 136.936c3.396 3.658 6.238 7.805 8.263 12.475l32.005 48.4h761.264l-130.829-197.811z" />
<glyph unicode="&#xe91b;" glyph-name="image" data-tags="image, picture, photo, graphic" d="M959.884 896c0.040-0.034 0.082-0.076 0.116-0.116v-767.77c-0.034-0.040-0.076-0.082-0.116-0.116h-895.77c-0.040 0.034-0.082 0.076-0.114 0.116v767.772c0.034 0.040 0.076 0.082 0.114 0.114h895.77zM960 960h-896c-35.2 0-64-28.8-64-64v-768c0-35.2 28.8-64 64-64h896c35.2 0 64 28.8 64 64v768c0 35.2-28.8 64-64 64v0zM832 736c0-53.020-42.98-96-96-96s-96 42.98-96 96 42.98 96 96 96 96-42.98 96-96zM896 192h-768v128l224 384 256-320h64l224 192z" />
<glyph unicode="&#xe91c;" glyph-name="info_admin" data-tags="info_admin" horiz-adv-x="1009" d="M65.839 479.619h-29.099c-20.215 0-36.741-16.525-36.741-36.741v-136.544c0-20.215 16.525-36.741 36.741-36.741h29.099c20.215 0 36.741 16.525 36.741 36.741v136.544c0 20.215-16.525 36.741-36.741 36.741zM65.839 207.413h-29.099c-20.215 0-36.741-16.525-36.741-36.741v-136.544c0-20.215 16.525-36.741 36.741-36.741h29.099c20.215 0 36.741 16.525 36.741 36.741v136.544c0 20.215-16.525 36.741-36.741 36.741zM65.839 751.793h-29.099c-20.215 0-36.741-16.525-36.741-36.741v-136.544c0-20.215 16.525-36.741 36.741-36.741h29.099c20.215 0 36.741 16.525 36.741 36.741v136.544c0 20.215-16.525 36.741-36.741 36.741zM65.839 1024h-29.099c-20.215 0-36.741-16.525-36.741-36.741v-136.544c0-20.215 16.525-36.741 36.741-36.741h29.099c20.215 0 36.741 16.525 36.741 36.741v136.544c0 20.215-16.525 36.741-36.741 36.741zM898.69 1023.053h-762.342v-1026.613h762.342c59.797 0 109.177 49.902 109.177 110.222v806.169c0 60.287-49.379 110.222-109.177 110.222zM811.852 210.123h-479.456c-28.217 0-51.306 23.089-51.306 51.306s23.089 51.306 51.306 51.306h479.456c28.217 0 51.306-23.089 51.306-51.306-0.033-28.217-23.122-51.306-51.306-51.306zM811.852 474.231h-479.456c-28.217 0-51.306 23.089-51.306 51.306s23.089 51.306 51.306 51.306h479.456c28.217 0 51.306-23.089 51.306-51.306s-23.122-51.306-51.306-51.306zM863.125 789.644c0-28.217-23.089-51.306-51.306-51.306h-479.423c-28.217 0-51.306 23.089-51.306 51.306v0c0 28.217 23.089 51.306 51.306 51.306h479.456c28.184 0 51.273-23.089 51.273-51.306v0z" />
<glyph unicode="&#xe91d;" glyph-name="info_bancaire" data-tags="info_bancaire" horiz-adv-x="1009" d="M65.839 479.619h-29.099c-20.215 0-36.741-16.525-36.741-36.741v-136.544c0-20.215 16.525-36.741 36.741-36.741h29.099c20.215 0 36.741 16.525 36.741 36.741v136.544c0 20.215-16.525 36.741-36.741 36.741zM65.839 207.413h-29.099c-20.215 0-36.741-16.525-36.741-36.741v-136.544c0-20.215 16.525-36.741 36.741-36.741h29.099c20.215 0 36.741 16.525 36.741 36.741v136.544c0 20.215-16.525 36.741-36.741 36.741zM65.839 751.793h-29.099c-20.215 0-36.741-16.525-36.741-36.741v-136.544c0-20.215 16.525-36.741 36.741-36.741h29.099c20.215 0 36.741 16.525 36.741 36.741v136.544c0 20.215-16.525 36.741-36.741 36.741zM65.839 1024h-29.099c-20.215 0-36.741-16.525-36.741-36.741v-136.544c0-20.215 16.525-36.741 36.741-36.741h29.099c20.215 0 36.741 16.525 36.741 36.741v136.544c0 20.215-16.525 36.741-36.741 36.741zM898.69 1023.053h-762.342v-1026.613h762.342c59.797 0 109.177 49.902 109.177 110.222v806.169c0 60.287-49.379 110.222-109.177 110.222zM764.171 604.57l-13.618-65.937h-228.836c-0.294-6.532-0.425-14.892-0.425-25.082 0-9.928 0.294-20.281 0.849-31.058h216.492l-13.618-65.937h-193.957c7.087-30.34 17.995-54.18 32.756-71.456 28.347-33.475 65.219-50.196 110.581-50.196 54.441 0 97.844 16.721 130.143 50.196v-130.143c-36.871-18.419-79.817-27.662-128.87-27.662-82.821 0-150.849 28.347-204.179 85.075-36.316 38.569-60.255 86.61-71.881 144.186h-62.965l13.618 65.937h41.672c-0.294 6.793-0.425 14.043-0.425 21.685 0 13.031 0.261 24.526 0.849 34.454h-55.715l13.618 65.937h50.62c11.92 56.433 35.565 103.625 71.032 141.639 53.592 57.283 124.069 85.924 211.397 85.924 47.648 0 89.026-8.654 124.199-25.931l-25.082-117.831c-24.102 24.102-59.275 36.153-105.486 36.153s-83.638-16.59-112.279-49.771c-16.166-18.713-27.662-42.097-34.454-70.183h233.964z" />
<glyph unicode="&#xe920;" glyph-name="stock" data-tags="stock" horiz-adv-x="1334" d="M1316.651 682.558l-613.257 336.576c-11.528 6.336-25.473 6.466-37.132 0.392l-645.099-336.576c-19.268-10.059-26.714-33.801-16.688-53.070 7.022-13.455 20.738-21.163 34.912-21.163 6.14 0 12.345 1.437 18.158 4.474l626.451 326.844 594.805-326.452c19.040-10.451 42.946-3.494 53.429 15.545 10.451 19.072 3.462 42.978-15.578 53.429zM702.937 113.357h-65.61c-17.015 0-25.539-9.046-25.539-20.575v-75.767c0-11.528 8.524-20.575 25.539-20.575h65.61c17.015 0 25.539 9.046 25.539 20.575v75.767c0 11.528-8.491 20.575-25.539 20.575zM542.356 113.357h-65.61c-17.015 0-25.539-9.046-25.539-20.575v-75.767c0-11.528 8.524-20.575 25.539-20.575h65.61c17.015 0 25.539 9.046 25.539 20.575v75.767c0 11.528-8.524 20.575-25.539 20.575zM542.356 273.97h-65.61c-17.015 0-25.539-9.046-25.539-20.575v-75.767c0-11.528 8.524-20.575 25.539-20.575h65.61c17.015 0 25.539 9.046 25.539 20.575v75.767c0 11.496-8.524 20.575-25.539 20.575zM381.775 113.357h-65.61c-17.015 0-25.539-9.046-25.539-20.575v-75.767c0-11.528 8.524-20.575 25.539-20.575h65.61c17.015 0 25.539 9.046 25.539 20.575v75.767c0 11.528-8.524 20.575-25.539 20.575zM381.775 273.97h-65.61c-17.015 0-25.539-9.046-25.539-20.575v-75.767c0-11.528 8.524-20.575 25.539-20.575h65.61c17.015 0 25.539 9.046 25.539 20.575v75.767c0 11.496-8.524 20.575-25.539 20.575zM381.775 434.551h-65.61c-17.015 0-25.539-9.046-25.539-20.575v-75.767c0-11.528 8.524-20.575 25.539-20.575h65.61c17.015 0 25.539 9.046 25.539 20.575v75.767c0 11.528-8.524 20.575-25.539 20.575zM221.162 113.357h-65.578c-17.015 0-25.539-9.046-25.539-20.575v-75.767c0-11.528 8.524-20.575 25.539-20.575h65.61c17.015 0 25.539 9.046 25.539 20.575v75.767c-0.033 11.528-8.524 20.575-25.571 20.575zM221.162 273.97h-65.578c-17.015 0-25.539-9.046-25.539-20.575v-75.767c0-11.528 8.524-20.575 25.539-20.575h65.61c17.015 0 25.539 9.046 25.539 20.575v75.767c-0.033 11.496-8.524 20.575-25.571 20.575zM221.162 434.551h-65.578c-17.015 0-25.539-9.046-25.539-20.575v-75.767c0-11.528 8.524-20.575 25.539-20.575h65.61c17.015 0 25.539 9.046 25.539 20.575v75.767c-0.033 11.528-8.524 20.575-25.571 20.575zM221.162 595.132h-65.578c-17.015 0-25.539-9.046-25.539-20.575v-75.767c0-11.528 8.524-20.575 25.539-20.575h65.61c17.015 0 25.539 9.046 25.539 20.575v75.767c-0.033 11.528-8.524 20.575-25.571 20.575z" />
<glyph unicode="&#xe921;" glyph-name="bienvenue" data-tags="bienvenue" horiz-adv-x="1031" d="M513.78 1024c-283.735 0-513.78-230.045-513.78-513.78 0-283.768 230.045-513.78 513.78-513.78 283.768 0 513.78 230.045 513.78 513.78 0.033 283.735-230.012 513.78-513.78 513.78zM281.678 560.808c-45.101 0-81.646 36.545-81.646 81.646s36.545 81.646 81.646 81.646c45.101 0 81.646-36.545 81.646-81.646s-36.577-81.646-81.646-81.646zM513.78 186.185c-93.337 0-169.007 64.533-169.007 144.154h338.013c0-79.621-75.669-144.154-169.007-144.154zM745.915 560.808c-45.101 0-81.646 36.545-81.646 81.646s36.545 81.646 81.646 81.646 81.646-36.545 81.646-81.646c0-45.101-36.545-81.646-81.646-81.646z" />
<glyph unicode="&#xe922;" glyph-name="file-text" data-tags="file-text, file, document, list, paper" d="M864 1024h-768c-52.8 0-96-43.2-96-96v-832c0-52.8 43.2-96 96-96h768c52.8 0 96 43.2 96 96v832c0 52.8-43.2 96-96 96zM832 128h-704v768h704v-768zM256 576h448v-64h-448zM256 448h448v-64h-448zM256 320h448v-64h-448zM256 704h448v-64h-448z" />
<glyph unicode="&#xe923;" glyph-name="desole" data-tags="desole" horiz-adv-x="1031" d="M509.828 1024c-283.735 0-513.78-230.045-513.78-513.78 0-283.768 230.045-513.78 513.78-513.78 283.768 0 513.78 230.045 513.78 513.78 0.033 283.735-230.012 513.78-513.78 513.78zM194.219 642.453c0 45.101 36.545 81.646 81.646 81.646s81.646-36.545 81.646-81.646c0-45.101-36.545-81.646-81.646-81.646s-81.646 36.545-81.646 81.646zM671.585 264.238h-332.984c-17.831 0-32.266 14.435-32.266 32.266s14.435 32.266 32.266 32.266h332.951c17.831 0 32.266-14.435 32.266-32.266s-14.435-32.266-32.234-32.266zM753.785 562.179c15.676-33.409 43.729-96.244 43.729-118.582 0-30.96-21.979-56.074-49.053-56.074-27.106 0-49.053 25.114-49.053 56.074 0 22.142 22.469 84.128 35.271 117.766-42.521 2.841-76.224 37.851-76.224 81.090 0 45.101 36.545 81.646 81.646 81.646s81.646-36.545 81.646-81.646c0-40.398-29.425-73.742-67.962-80.274z" />
<glyph unicode="&#xe924;" glyph-name="erreur" data-tags="erreur" horiz-adv-x="1031" d="M509.828 1024c-283.735 0-513.78-230.045-513.78-513.78 0-283.768 230.045-513.78 513.78-513.78 283.768 0 513.78 230.045 513.78 513.78 0.033 283.735-230.012 513.78-513.78 513.78zM275.864 560.808c-45.101 0-81.646 36.545-81.646 81.646s36.545 81.646 81.646 81.646c45.101 0 81.646-36.545 81.646-81.646s-36.545-81.646-81.646-81.646zM509.828 111.757c-79.621 0-144.154 64.533-144.154 144.154s64.533 144.154 144.154 144.154 144.154-64.533 144.154-144.154-64.533-144.154-144.154-144.154zM740.102 560.808c-45.101 0-81.646 36.545-81.646 81.646s36.545 81.646 81.646 81.646c45.101 0 81.646-36.545 81.646-81.646s-36.545-81.646-81.646-81.646z" />
<glyph unicode="&#xe925;" glyph-name="commande" data-tags="commande" horiz-adv-x="1009" d="M513.78 1024c-283.735 0-513.78-230.045-513.78-513.78s230.045-513.78 513.78-513.78 513.78 230.045 513.78 513.78-230.012 513.78-513.78 513.78zM709.827 379.326h-215.61c-47.681 0-86.348 38.667-86.348 86.348v381.253c0 47.681 38.667 86.348 86.348 86.348s86.348-38.667 86.348-86.348v-294.872h129.261c47.681 0 86.348-38.667 86.348-86.348 0.033-47.714-38.667-86.381-86.348-86.381z" />
<glyph unicode="&#xe926;" glyph-name="danger" data-tags="danger" horiz-adv-x="841" d="M419.92 1024c-121.848 0-419.92-95.525-419.92-406.759s26.616-312.278 64.239-360.645c23.057-29.654 51.045-24.69 100.457-59.275 48.889-34.226 36.218-93.86 69.17-141.606 32.92-47.746 143.272-59.275 186.087-59.275s153.135 11.528 186.087 59.275c32.952 47.746 20.281 107.413 69.17 141.606 49.412 34.585 77.4 29.654 100.457 59.275 37.622 48.367 64.206 49.412 64.206 360.645-0.033 311.233-298.072 406.759-419.953 406.759zM211.136 361.984c-75.506 0-136.675 61.202-136.675 136.675 0 75.506 61.202 136.675 136.675 136.675s136.675-61.202 136.675-136.675c0-75.473-61.202-136.675-136.675-136.675zM458.62 210.352c-21.424 3.298-20.575 4.931-38.7 4.931s-18.942-4.931-38.7-4.931c-19.758 0-37.884 23.873-35.402 35.402s32.92 74.918 41.182 97.158c8.23 22.24 15.839 35.402 35.402 35.402s27.988-14.827 35.402-35.402c7.413-20.575 33.769-83.148 36.218-97.158 2.482-13.978-14.010-38.7-35.402-35.402zM628.737 361.984c-75.473 0-136.675 61.202-136.675 136.675 0 75.506 61.202 136.675 136.675 136.675s136.675-61.202 136.675-136.675c0-75.473-61.202-136.675-136.675-136.675z" />
<glyph unicode="&#xe927;" glyph-name="valider" data-tags="valider" horiz-adv-x="1081" d="M1077.625 964.627c-17.603 47.257-70.248 71.195-117.439 53.592-212.769-79.327-469.397-522.924-594.674-761.428l-202.416 257.804c-31.156 39.712-88.537 46.538-128.118 15.447-39.712-31.156-46.603-88.504-15.447-128.151l290.855-370.541c17.407-22.24 43.925-34.944 71.783-34.944 3.201 0 68.354 23.122 82.136 51.404 145.493 299.476 415.381 745.523 559.73 799.344 47.224 17.635 71.228 70.215 53.592 117.472z" />
<glyph unicode="&#xe928;" glyph-name="warning" data-tags="warning" horiz-adv-x="259" d="M94.252 362.735h72.959c25.833 191.541 69.889 430.207 85.107 527.496 3.070 21.261 6.107 48.661 6.107 66.884-1.502 57.805-76.028 66.884-127.694 66.884-54.768 0-130.731-13.684-130.731-66.884 0-18.223 6.074-53.2 10.614-71.424 18.289-104.898 62.312-346.602 83.638-522.957zM132.233 250.293c-71.424 0-123.154-51.731-123.154-126.192 0-76.028 51.731-127.694 123.154-127.694 72.926 0 124.657 51.665 124.657 127.694 0.033 74.461-51.698 126.192-124.657 126.192z" />
<glyph unicode="&#xe929;" glyph-name="prec" data-tags="prec" horiz-adv-x="668" d="M672.009 865.771l-158.229 158.229-513.78-513.78 513.78-513.813 158.229 158.229-355.551 355.583z" />
<glyph unicode="&#xe92a;" glyph-name="suiv" data-tags="suiv" horiz-adv-x="668" d="M158.229 1024l-158.229-158.229 355.551-355.551-355.551-355.583 158.229-158.229 513.78 513.813z" />
<glyph unicode="&#xe92b;" glyph-name="coche" data-tags="coche" horiz-adv-x="1022" d="M962.276 1024h-896.992c-36.022 0-65.284-29.262-65.284-65.284v-896.992c0-36.055 29.262-65.284 65.284-65.284h896.992c36.055 0 65.284 29.262 65.284 65.284v896.992c0.033 36.022-29.229 65.284-65.284 65.284zM896.992 127.008h-766.392v766.392h766.392v-766.392zM378.509 230.208c10.189-12.998 25.669-20.444 41.966-20.444 1.862 0 3.788 0.098 5.65 0.327 18.321 1.959 34.291 13.194 42.358 29.752 85.075 175.114 242.88 435.923 327.301 467.405 27.629 10.287 41.672 41.051 31.352 68.68-10.287 27.629-41.084 41.639-68.68 31.352-124.395-46.407-274.46-305.812-347.713-445.263l-118.354 150.751c-18.223 23.22-51.796 27.204-74.918 9.046-23.22-18.223-27.237-51.731-9.046-74.918l170.084-216.688z" />
<glyph unicode="&#xe92c;" glyph-name="nocoche" data-tags="nocoche" horiz-adv-x="1022" d="M962.276 1024h-896.992c-36.022 0-65.284-29.262-65.284-65.284v-896.992c0-36.055 29.262-65.284 65.284-65.284h896.992c36.055 0 65.284 29.262 65.284 65.284v896.992c0.033 36.022-29.229 65.284-65.284 65.284zM896.992 127.008h-766.392v766.392h766.392v-766.392z" />
<glyph unicode="&#xe92d;" glyph-name="file-text2" data-tags="file-text, file, document, list, paper, page" d="M917.806 794.924c-22.212 30.292-53.174 65.7-87.178 99.704s-69.412 64.964-99.704 87.178c-51.574 37.82-76.592 42.194-90.924 42.194h-496c-44.112 0-80-35.888-80-80v-864c0-44.112 35.888-80 80-80h736c44.112 0 80 35.888 80 80v624c0 14.332-4.372 39.35-42.194 90.924zM785.374 849.374c30.7-30.7 54.8-58.398 72.58-81.374h-153.954v153.946c22.984-17.78 50.678-41.878 81.374-72.572zM896 80c0-8.672-7.328-16-16-16h-736c-8.672 0-16 7.328-16 16v864c0 8.672 7.328 16 16 16 0 0 495.956 0.002 496 0v-224c0-17.672 14.326-32 32-32h224v-624zM736 192h-448c-17.672 0-32 14.326-32 32s14.328 32 32 32h448c17.674 0 32-14.326 32-32s-14.326-32-32-32zM736 320h-448c-17.672 0-32 14.326-32 32s14.328 32 32 32h448c17.674 0 32-14.326 32-32s-14.326-32-32-32zM736 448h-448c-17.672 0-32 14.326-32 32s14.328 32 32 32h448c17.674 0 32-14.326 32-32s-14.326-32-32-32z" />
<glyph unicode="&#xe92e;" glyph-name="annuler_commande" data-tags="annuler_commande" horiz-adv-x="1059" d="M404.701 339.385l-12.443 53.984h64.565l300.652 468.483h-461.396c0 0-16.59 66.329-19.072 84.585s-20.738 34.814-43.958 34.814h-187.426c-24.069 0-45.624-21.554-45.624-58.034 0-40.627 25.702-59.732 48.106-59.732h121.913l131.613-623.61c-29.523-19.595-48.987-53.135-48.987-91.215 0-19.040 4.866-36.937 13.423-52.514l156.107 243.271h-17.472zM926.058 393.336c21.848 0 39.255 12.377 42.586 38.080l89.582 378.183c4.246 26.551-15.741 53.919-45.885 52.253h-153.298l-300.652-468.483h367.667zM798.103 219.137c-16.068-19.040-25.735-43.631-25.735-70.477 0-60.45 49.020-109.471 109.471-109.471s109.471 49.020 109.471 109.471c0 45.068-27.27 83.768-66.166 100.555l12.835 37.1c5.813 21.554-15.741 53.070-43.958 53.070h-370.279l-77.171-120.248h351.534zM362.148 39.157c60.45 0 109.471 49.020 109.471 109.471 0 26.649-9.536 51.012-25.343 70.019l-112.736-175.669c9.112-2.482 18.681-3.821 28.609-3.821zM920.833 958.194c12.737 19.856 6.989 46.309-12.9 59.046-19.856 12.737-46.309 6.989-59.046-12.9l-91.443-142.488h101.567l61.822 96.342zM446.243 218.647l0.327 0.49h-0.718c0.131-0.163 0.261-0.359 0.392-0.49zM266.067 96.113l-21.718-33.867c-12.737-19.856-6.989-46.309 12.9-59.046 7.152-4.572 15.153-6.76 23.024-6.76 14.076 0 27.858 6.924 35.989 19.66l17.244 26.878c-29.033 7.838-53.266 27.302-67.439 53.135zM456.824 393.336l-34.65-53.951h101.567l34.65 53.951z" />
<glyph unicode="&#xe92f;" glyph-name="dupli_command" data-tags="dupli_command" horiz-adv-x="1431" d="M568.711 228.706l-20.085 95.166h-107.184l-13.553 58.883h108.327l-101.241 479.489h-105.976c-41.574 0-85.761 34.487-85.761 98.432 0 24.363 6.989 46.048 18.876 62.671-2.58 0.392-5.225 0.653-7.936 0.653h-204.441c-26.225 0-49.739-23.514-49.739-63.324 0-44.317 28.053-65.121 52.449-65.121h132.984l143.566-680.206c-32.201-21.391-53.429-57.968-53.429-99.51 0-65.937 53.462-119.399 119.399-119.399s119.399 53.462 119.399 119.399c0 29.294-10.581 56.107-28.086 76.878h53.298c7.773 13.292 17.537 25.441 29.131 35.989zM1333.078 424.264l97.681 412.474c4.637 28.935-17.178 58.785-50.065 56.989h-781.218c0 0-18.093 72.371-20.803 92.26s-22.632 38.014-47.942 38.014h-204.441c-26.225 0-49.739-23.514-49.739-63.324 0-40.333 23.22-61.202 45.82-64.631 0 0 0 0 0 0 0.359-1.47 0.588-2.319 0.588-2.319h139.418l143.207-678.41c-32.201-21.391-53.429-57.968-53.429-99.51 0-65.937 53.462-119.399 119.399-119.399s119.399 53.462 119.399 119.399c0 29.294-10.581 56.107-28.086 76.878h384.192c-17.505-20.771-28.086-47.583-28.086-76.878 0-65.937 53.462-119.399 119.399-119.399s119.399 53.462 119.399 119.399c0 49.183-29.719 91.378-72.175 109.699l13.978 40.464c6.336 23.514-17.178 57.903-47.942 57.903h-533.669l-13.553 58.883h582.232c23.808 0 42.815 13.488 46.44 41.509zM325.995 895.686c-0.196 0-0.425 0.033-0.621 0.065 0.196-0.033 0.392-0.065 0.621-0.065z" />
<glyph unicode="&#xe930;" glyph-name="autre" data-tags="autre" horiz-adv-x="1025" d="M290.659 510.22c0-80.263-65.066-145.329-145.329-145.329s-145.329 65.066-145.329 145.329c0 80.263 65.066 145.329 145.329 145.329s145.329-65.066 145.329-145.329zM659.109 510.22c0-80.263-65.066-145.329-145.329-145.329s-145.329 65.066-145.329 145.329c0 80.263 65.066 145.329 145.329 145.329s145.329-65.066 145.329-145.329zM1027.592 510.22c0-80.263-65.066-145.329-145.329-145.329s-145.329 65.066-145.329 145.329c0 80.263 65.066 145.329 145.329 145.329s145.329-65.066 145.329-145.329z" />
<glyph unicode="&#xe931;" glyph-name="hyper_marche" data-tags="hyper_marche" horiz-adv-x="1118" d="M842.649 437.131l-236.152-136.283c-8.654-4.997-11.626-16.068-6.63-24.722 3.364-5.813 9.438-9.046 15.709-9.046 3.070 0 6.172 0.784 9.046 2.417l236.152 136.283c8.654 4.997 11.626 16.068 6.63 24.722-5.029 8.654-16.101 11.626-24.755 6.63zM619.625 364.466c3.070 0 6.172 0.784 9.046 2.417l149.346 86.185c8.654 4.997 11.626 16.068 6.63 24.722s-16.068 11.626-24.722 6.63l-149.346-86.185c-8.654-4.997-11.626-16.068-6.63-24.722 3.364-5.813 9.438-9.046 15.676-9.046zM841.538 325.603l-149.346-86.185c-8.654-4.997-11.626-16.068-6.63-24.722 3.364-5.813 9.438-9.046 15.709-9.046 3.070 0 6.172 0.784 9.046 2.417l149.346 86.185c8.654 4.997 11.626 16.068 6.63 24.722-5.029 8.654-16.101 11.626-24.755 6.63zM1116.162 341.801l2.090 224.885c0.033 3.984-0.718 7.805-2.090 11.332v179.131c0 16.656-13.521 30.176-30.176 30.176h-264.532v44.938h103.167c16.656 0 30.176 13.521 30.176 30.176v131.384c0 16.656-13.521 30.176-30.176 30.176h-732.786c-16.656 0-30.176-13.521-30.176-30.176v-131.384c0-16.656 13.521-30.176 30.176-30.176h119.105v-44.938h-280.469c-16.656 0-30.176-13.521-30.176-30.176v-153.494c0-3.037 0.457-5.976 1.306-8.752-0.392-1.927-0.588-3.952-0.588-6.009v-554.701c-0.653-2.449-1.012-4.964-1.012-7.609 0-16.656 13.521-30.176 30.176-30.176h1052.903c16.558 0 30.013 13.325 30.176 29.882l1.959 210.809c0.621 2.417 0.98 4.899 0.98 7.511v97.191zM222.011 963.648h672.466v-71.064h-672.466v71.064zM371.292 832.263h389.842v-44.938h-389.842v44.938zM283.8 303.265h-89.908c-9.993 0-18.093-8.099-18.093-18.093s8.099-18.093 18.093-18.093h89.908v-210.319h-222.468v501.958h222.468v-255.453zM344.12 56.76v532.134c0 16.656-13.521 30.176-30.176 30.176h-253.298v107.903h995.195v-385.041l-2.678-285.172h-709.044z" />
<glyph unicode="&#xe932;" glyph-name="magasin" data-tags="magasin" horiz-adv-x="1331" d="M1308.943 684.55l-609.665 334.617c-11.463 6.303-25.31 6.434-36.904 0.392l-641.343-334.617c-19.138-9.993-26.584-33.605-16.59-52.776 6.989-13.357 20.607-21.032 34.716-21.032 6.107 0 12.28 1.437 18.060 4.442l622.793 324.95 591.311-324.558c18.942-10.385 42.717-3.462 53.102 15.48s3.462 42.717-15.48 53.102zM1210.119 596.438c-0.098 0-0.196 0-0.294 0-16.525 0-29.98-13.292-30.111-29.85l-4.768-509.894h-708.195v531.513c0 16.656-13.488 30.144-30.144 30.144h-282.461c-16.656 0-30.144-13.488-30.144-30.144v-554.080c-0.621-2.417-1.012-4.964-1.012-7.577 0-16.656 13.488-30.144 30.144-30.144h1051.662c16.525 0 29.98 13.325 30.144 29.85l5.062 539.776c0.131 16.656-13.227 30.274-29.882 30.405zM184.291 56.695v501.37h222.174v-255.159h-89.81c-9.993 0-18.093-8.099-18.093-18.093s8.099-18.093 18.093-18.093h89.81v-210.058h-222.174zM722.205 275.799c3.364-5.813 9.438-9.046 15.676-9.046 3.070 0 6.172 0.784 9.014 2.417l235.858 136.12c8.654 4.997 11.626 16.035 6.63 24.69s-16.068 11.626-24.69 6.63l-235.858-136.12c-8.654-4.997-11.626-16.035-6.63-24.69zM741.931 364.009c3.070 0 6.172 0.784 9.014 2.417l149.183 86.087c8.654 4.997 11.626 16.035 6.63 24.69s-16.035 11.626-24.69 6.63l-149.183-86.087c-8.654-4.997-11.626-16.035-6.63-24.69 3.364-5.781 9.438-9.046 15.676-9.046zM963.582 325.211l-149.183-86.087c-8.654-4.997-11.626-16.035-6.63-24.69 3.364-5.813 9.438-9.046 15.676-9.046 3.070 0 6.172 0.784 9.014 2.417l149.183 86.087c8.654 4.997 11.626 16.035 6.63 24.69s-16.068 11.626-24.69 6.63z" />
<glyph unicode="&#xe933;" glyph-name="marche" data-tags="marche" horiz-adv-x="1122" d="M995.783 299.64c49.706 0 94.448-21.032 125.963-54.605v512.016c0 6.074-1.829 12.018-5.258 17.015l-161.56 236.772c-5.617 8.23-14.957 13.161-24.951 13.161h-733.603c-9.993 0-19.334-4.931-24.951-13.194l-161.56-236.772c-3.396-4.997-5.225-10.908-5.225-16.982v-500.782c0-3.135 0.49-6.172 1.372-9.046-3.919-15.611-6.009-31.972-6.009-48.791 0-110.875 89.876-200.75 200.75-200.75s200.75 89.876 200.75 200.75h437.033c27.204 59.699 87.361 101.208 157.25 101.208zM123.644 644.021c35.075 0 66.558 15.643 87.916 40.268 21.359-24.624 52.841-40.268 87.916-40.268s66.558 15.643 87.916 40.268c21.359-24.624 52.841-40.268 87.916-40.268s66.558 15.643 87.916 40.268c21.359-24.624 52.841-40.268 87.916-40.268s66.558 15.643 87.916 40.268c21.359-24.624 52.841-40.268 87.916-40.268s66.558 15.643 87.916 40.268c21.359-24.624 52.841-40.268 87.916-40.268 21.293 0 41.28 5.781 58.491 15.839v-258.229h-996.273v258.294c17.244-10.091 37.263-15.905 58.622-15.905zM212.344 963.582h701.696l144.186-211.332c-3.952-27.041-27.27-47.844-55.356-47.844-30.862 0-55.976 25.114-55.976 55.976 0 16.688-13.521 30.209-30.209 30.209-0.588 0-1.176-0.065-1.764-0.098-0.588 0.033-1.176 0.098-1.764 0.098-16.688 0-30.209-13.521-30.209-30.209 0-30.862-25.114-55.976-55.976-55.976s-55.976 25.114-55.976 55.976c0 16.688-13.521 30.209-30.209 30.209-0.588 0-1.176-0.065-1.764-0.098-0.588 0.033-1.176 0.098-1.764 0.098-16.688 0-30.209-13.521-30.209-30.209 0-30.862-25.114-55.976-55.976-55.976s-55.976 25.114-55.976 55.976c0 16.688-13.521 30.209-30.209 30.209-0.588 0-1.176-0.065-1.764-0.098-0.588 0.033-1.176 0.098-1.764 0.098-16.688 0-30.209-13.521-30.209-30.209 0-30.862-25.114-55.976-55.976-55.976s-55.976 25.114-55.976 55.976c0 16.688-13.521 30.209-30.209 30.209-0.588 0-1.176-0.065-1.764-0.098-0.588 0.033-1.176 0.098-1.764 0.098-16.688 0-30.209-13.521-30.209-30.209 0-30.862-25.114-55.976-55.976-55.976s-55.976 25.114-55.976 55.976c0 16.688-13.521 30.209-30.209 30.209-0.588 0-1.176-0.065-1.764-0.098-0.359 0.033-0.947 0.098-1.535 0.098-16.688 0-30.209-13.521-30.209-30.209 0-30.862-25.114-55.976-55.976-55.976-28.151 0-51.502 20.901-55.388 48.008l144.121 211.168zM200.75 140.594c-31.94 0-57.838 25.898-57.838 57.838s25.898 57.838 57.838 57.838c31.94 0 57.838-25.898 57.838-57.838 0.033-31.94-25.865-57.838-57.838-57.838zM995.783 257.445c-71.979 0-130.502-58.556-130.502-130.502s58.556-130.502 130.502-130.502 130.502 58.556 130.502 130.502-58.556 130.502-130.502 130.502zM995.783 90.888c-19.889 0-36.055 16.166-36.055 36.055s16.166 36.055 36.055 36.055 36.055-16.166 36.055-36.055-16.199-36.055-36.055-36.055z" />
<glyph unicode="&#xe939;" glyph-name="inscription" data-tags="inscription" horiz-adv-x="1040" d="M551.638 484.252c0 27.038-21.847 48.886-48.886 48.886h-101.665v101.665c0 27.038-21.847 48.886-48.886 48.886s-48.886-21.847-48.886-48.886v-101.665h-101.665c-27.038 0-48.886-21.847-48.886-48.886s21.847-48.886 48.886-48.886h101.665v-101.665c0-27.038 21.847-48.886 48.886-48.886s48.886 21.847 48.886 48.886v101.665h101.665c27.038 0 48.886 21.847 48.886 48.886zM679.909 824.504h-162.014c-27.038 0-48.886-21.847-48.886-48.886s21.847-48.886 48.886-48.886h113.129v-484.962h-113.129c-27.038 0-48.886-21.847-48.886-48.886s21.847-48.886 48.886-48.886h162.014c27.038 0 48.886 21.847 48.886 48.886v582.733c0 27.038-21.847 48.886-48.886 48.886z" />
<glyph unicode="&#xe93a;" glyph-name="cart" data-tags="cart, purchase, ecommerce, shopping" d="M384 96c0-53.019-42.981-96-96-96s-96 42.981-96 96c0 53.019 42.981 96 96 96s96-42.981 96-96zM1024 96c0-53.019-42.981-96-96-96s-96 42.981-96 96c0 53.019 42.981 96 96 96s96-42.981 96-96zM1024 512v384h-768c0 35.346-28.654 64-64 64h-192v-64h128l48.074-412.054c-29.294-23.458-48.074-59.5-48.074-99.946 0-70.696 57.308-128 128-128h768v64h-768c-35.346 0-64 28.654-64 64 0 0.218 0.014 0.436 0.016 0.656l831.984 127.344z" />
<glyph unicode="&#xe954;" glyph-name="print" data-tags="printer, print" d="M256 960h512v-128h-512v128zM960 768h-896c-35.2 0-64-28.8-64-64v-320c0-35.2 28.794-64 64-64h192v-256h512v256h192c35.2 0 64 28.8 64 64v320c0 35.2-28.8 64-64 64zM128 576c-35.346 0-64 28.654-64 64s28.654 64 64 64 64-28.654 64-64-28.652-64-64-64zM704 128h-384v320h384v-320z" />
<glyph unicode="&#xe984;" glyph-name="spinner11" data-tags="spinner, loading, loading-wheel, refresh, repeat, busy, wait, arrow" d="M1024 640h-384l143.53 143.53c-72.53 72.526-168.96 112.47-271.53 112.47s-199-39.944-271.53-112.47c-72.526-72.53-112.47-168.96-112.47-271.53s39.944-199 112.47-271.53c72.53-72.526 168.96-112.47 271.53-112.47s199 39.944 271.528 112.472c6.056 6.054 11.86 12.292 17.456 18.668l96.32-84.282c-93.846-107.166-231.664-174.858-385.304-174.858-282.77 0-512 229.23-512 512s229.23 512 512 512c141.386 0 269.368-57.326 362.016-149.984l149.984 149.984v-384z" />
<glyph unicode="&#xe98f;" glyph-name="lock" data-tags="lock, secure, private, encrypted" d="M592 576h-16v192c0 105.87-86.13 192-192 192h-128c-105.87 0-192-86.13-192-192v-192h-16c-26.4 0-48-21.6-48-48v-480c0-26.4 21.6-48 48-48h544c26.4 0 48 21.6 48 48v480c0 26.4-21.6 48-48 48zM192 768c0 35.29 28.71 64 64 64h128c35.29 0 64-28.71 64-64v-192h-256v192z" />
<glyph unicode="&#xe994;" glyph-name="cog" data-tags="cog, gear, preferences, settings, generate, control, options" d="M933.79 413.75c-53.726 93.054-21.416 212.304 72.152 266.488l-100.626 174.292c-28.75-16.854-62.176-26.518-97.846-26.518-107.536 0-194.708 87.746-194.708 195.99h-201.258c0.266-33.41-8.074-67.282-25.958-98.252-53.724-93.056-173.156-124.702-266.862-70.758l-100.624-174.292c28.97-16.472 54.050-40.588 71.886-71.478 53.638-92.908 21.512-211.92-71.708-266.224l100.626-174.292c28.65 16.696 61.916 26.254 97.4 26.254 107.196 0 194.144-87.192 194.7-194.958h201.254c-0.086 33.074 8.272 66.57 25.966 97.218 53.636 92.906 172.776 124.594 266.414 71.012l100.626 174.29c-28.78 16.466-53.692 40.498-71.434 71.228zM512 304.668c-114.508 0-207.336 92.824-207.336 207.334 0 114.508 92.826 207.334 207.336 207.334 114.508 0 207.332-92.826 207.332-207.334-0.002-114.51-92.824-207.334-207.332-207.334z" />
<glyph unicode="&#xe9ba;" glyph-name="list" data-tags="list, todo, bullet, menu, options" d="M0 1024h256v-256h-256zM384 960h640v-128h-640zM0 640h256v-256h-256zM384 576h640v-128h-640zM0 256h256v-256h-256zM384 192h640v-128h-640z" />
<glyph unicode="&#xea2d;" glyph-name="loop" data-tags="loop, repeat, player" d="M128 704h640v-192l256 256-256 256v-192h-768v-384h128zM896 320h-640v192l-256-256 256-256v192h768v384h-128z" />
<glyph unicode="&#xf067;" glyph-name="plus" data-tags="plus" horiz-adv-x="805" d="M804.571 603.429v-109.714c0-30.286-24.571-54.857-54.857-54.857h-237.714v-237.714c0-30.286-24.571-54.857-54.857-54.857h-109.714c-30.286 0-54.857 24.571-54.857 54.857v237.714h-237.714c-30.286 0-54.857 24.571-54.857 54.857v109.714c0 30.286 24.571 54.857 54.857 54.857h237.714v237.714c0 30.286 24.571 54.857 54.857 54.857h109.714c30.286 0 54.857-24.571 54.857-54.857v-237.714h237.714c30.286 0 54.857-24.571 54.857-54.857z" />
<glyph unicode="&#xf114;" glyph-name="folder-o" data-tags="folder-o" horiz-adv-x="951" d="M877.714 274.286v402.286c0 30.286-24.571 54.857-54.857 54.857h-402.286c-30.286 0-54.857 24.571-54.857 54.857v36.571c0 30.286-24.571 54.857-54.857 54.857h-182.857c-30.286 0-54.857-24.571-54.857-54.857v-548.571c0-30.286 24.571-54.857 54.857-54.857h694.857c30.286 0 54.857 24.571 54.857 54.857zM950.857 676.571v-402.286c0-70.286-57.714-128-128-128h-694.857c-70.286 0-128 57.714-128 128v548.571c0 70.286 57.714 128 128 128h182.857c70.286 0 128-57.714 128-128v-18.286h384c70.286 0 128-57.714 128-128z" />
<glyph unicode="&#xf115;" glyph-name="folder-open-o" data-tags="folder-open-o" horiz-adv-x="1091" d="M1017.714 492c0 16-17.714 20-30.286 20h-621.714c-30.286 0-70.286-18.857-89.714-42.286l-168-207.429c-5.143-6.857-10.286-14.286-10.286-22.857 0-16 17.714-20 30.286-20h621.714c30.286 0 70.286 18.857 89.714 42.857l168 207.429c5.143 6.286 10.286 13.714 10.286 22.286zM365.714 585.143h438.857v91.429c0 30.286-24.571 54.857-54.857 54.857h-329.143c-30.286 0-54.857 24.571-54.857 54.857v36.571c0 30.286-24.571 54.857-54.857 54.857h-182.857c-30.286 0-54.857-24.571-54.857-54.857v-487.429l146.286 180c33.143 40.571 94.286 69.714 146.286 69.714zM1090.857 492c0-25.143-10.857-49.143-26.286-68.571l-168.571-207.429c-32.571-40-94.857-69.714-146.286-69.714h-621.714c-70.286 0-128 57.714-128 128v548.571c0 70.286 57.714 128 128 128h182.857c70.286 0 128-57.714 128-128v-18.286h310.857c70.286 0 128-57.714 128-128v-91.429h109.714c38.857 0 77.714-17.714 94.857-54.286 5.714-12 8.571-25.143 8.571-38.857z" />
<glyph unicode="&#xf137;" glyph-name="chevron-circle-left" data-tags="chevron-circle-left" horiz-adv-x="878" d="M519.429 226.857l58.286 58.286c14.286 14.286 14.286 37.143 0 51.429l-175.429 175.429 175.429 175.429c14.286 14.286 14.286 37.143 0 51.429l-58.286 58.286c-14.286 14.286-37.143 14.286-51.429 0l-259.429-259.429c-14.286-14.286-14.286-37.143 0-51.429l259.429-259.429c14.286-14.286 37.143-14.286 51.429 0zM877.714 512c0-242.286-196.571-438.857-438.857-438.857s-438.857 196.571-438.857 438.857 196.571 438.857 438.857 438.857 438.857-196.571 438.857-438.857z" />
<glyph unicode="&#xf138;" glyph-name="chevron-circle-right" data-tags="chevron-circle-right" horiz-adv-x="878" d="M409.714 226.857l259.429 259.429c14.286 14.286 14.286 37.143 0 51.429l-259.429 259.429c-14.286 14.286-37.143 14.286-51.429 0l-58.286-58.286c-14.286-14.286-14.286-37.143 0-51.429l175.429-175.429-175.429-175.429c-14.286-14.286-14.286-37.143 0-51.429l58.286-58.286c14.286-14.286 37.143-14.286 51.429 0zM877.714 512c0-242.286-196.571-438.857-438.857-438.857s-438.857 196.571-438.857 438.857 196.571 438.857 438.857 438.857 438.857-196.571 438.857-438.857z" />
<glyph unicode="&#xf1c1;" glyph-name="file-pdf-o" data-tags="file-pdf-o" horiz-adv-x="878" d="M838.857 806.857c21.143-21.143 38.857-63.429 38.857-93.714v-658.286c0-30.286-24.571-54.857-54.857-54.857h-768c-30.286 0-54.857 24.571-54.857 54.857v914.286c0 30.286 24.571 54.857 54.857 54.857h512c30.286 0 72.571-17.714 93.714-38.857zM585.143 946.286v-214.857h214.857c-3.429 9.714-8.571 19.429-12.571 23.429l-178.857 178.857c-4 4-13.714 9.143-23.429 12.571zM804.571 73.143v585.143h-237.714c-30.286 0-54.857 24.571-54.857 54.857v237.714h-438.857v-877.714h731.429zM510.857 412c14.286-11.429 30.286-21.714 48-32 24 2.857 46.286 4 66.857 4 38.286 0 86.857-4.571 101.143-28 4-5.714 7.429-16 1.143-29.714-0.571-0.571-1.143-1.714-1.714-2.286v-0.571c-1.714-10.286-10.286-21.714-40.571-21.714-36.571 0-92 16.571-140 41.714-79.429-8.571-162.857-26.286-224-47.429-58.857-100.571-104-149.714-138.286-149.714-5.714 0-10.857 1.143-16 4l-13.714 6.857c-1.714 0.571-2.286 1.714-3.429 2.857-2.857 2.857-5.143 9.143-3.429 20.571 5.714 26.286 36.571 70.286 107.429 107.429 4.571 2.857 10.286 1.143 13.143-3.429 0.571-0.571 1.143-1.714 1.143-2.286 17.714 29.143 38.286 66.286 61.143 112.571 25.714 51.429 45.714 101.714 59.429 149.714-18.286 62.286-24 126.286-13.714 164 4 14.286 12.571 22.857 24 22.857h12.571c8.571 0 15.429-2.857 20-8.571 6.857-8 8.571-20.571 5.143-38.857-0.571-1.714-1.143-3.429-2.286-4.571 0.571-1.714 0.571-2.857 0.571-4.571v-17.143c-0.571-36-1.143-70.286-8-109.714 20-60 49.714-108.571 83.429-136zM181.714 177.143c17.143 8 41.714 32.571 78.286 90.286-42.857-33.143-69.714-70.857-78.286-90.286zM409.143 702.857c-5.714-16-5.714-43.429-1.143-75.429 1.714 9.143 2.857 17.714 4 25.143 1.143 9.714 2.857 17.714 4 24.571 0.571 1.714 1.143 2.857 2.286 4.571-0.571 0.571-0.571 1.714-1.143 2.857-0.571 10.286-4 16.571-7.429 20.571 0-1.143-0.571-1.714-0.571-2.286zM338.286 325.143c50.286 20 106.286 36 162.286 46.286-5.714 4.571-11.429 8.571-16.571 13.143-28 24.571-53.143 58.857-72.571 100.571-10.857-34.857-26.857-72-47.429-112.571-8.571-16-17.143-32-25.714-47.429zM707.429 334.286c-2.857 2.857-17.714 13.714-80 13.714 28-10.286 53.714-16 70.857-16 5.143 0 8 0 10.286 0.571 0 0.571-0.571 1.143-1.143 1.714z" />
<glyph unicode="&#xf1c3;" glyph-name="file-excel-o" data-tags="file-excel-o" horiz-adv-x="878" d="M838.857 806.857c21.143-21.143 38.857-63.429 38.857-93.714v-658.286c0-30.286-24.571-54.857-54.857-54.857h-768c-30.286 0-54.857 24.571-54.857 54.857v914.286c0 30.286 24.571 54.857 54.857 54.857h512c30.286 0 72.571-17.714 93.714-38.857zM585.143 946.286v-214.857h214.857c-3.429 9.714-8.571 19.429-12.571 23.429l-178.857 178.857c-4 4-13.714 9.143-23.429 12.571zM804.571 73.143v585.143h-237.714c-30.286 0-54.857 24.571-54.857 54.857v237.714h-438.857v-877.714h731.429zM245.143 206.857v-60.571h160.571v60.571h-42.857l58.857 92c6.857 10.857 10.286 19.429 12 19.429h1.143c0.571-2.286 1.714-4 2.857-5.714 2.286-4.571 5.714-8 9.714-13.714l61.143-92h-43.429v-60.571h166.286v60.571h-38.857l-109.714 156 111.429 161.143h38.286v61.143h-159.429v-61.143h42.286l-58.857-90.857c-6.857-10.857-12-19.429-12-18.857h-1.143c-0.571 2.286-1.714 4-2.857 5.714-2.286 4-5.143 8-9.714 13.143l-60.571 90.857h43.429v61.143h-165.714v-61.143h38.857l108-155.429-110.857-161.714h-38.857z" />
</font>
</defs>
</svg>
