<?xml version="1.0" encoding="utf-8"?>
<!-- Generator: Adobe Illustrator 26.2.1, SVG Export Plug-In . SVG Version: 6.00 Build 0)  -->
<svg version="1.1" id="Plan_1" xmlns="http://www.w3.org/2000/svg" xmlns:xlink="http://www.w3.org/1999/xlink" x="0px" y="0px"
	 viewBox="0 0 206.9 185" style="enable-background:new 0 0 206.9 185;" xml:space="preserve">
<style type="text/css">
	.st0{fill:#00A13A;}
	.st1{fill:#FFFFFF;}
</style>
<polygon class="st0" points="0,184.9 0,0 206.9,0.1 206.9,185 "/>
<path class="st1" d="M157.1,58.9c7.5,0.1,14.9-2.4,20.8-7.1c3.3-2.5,10.4-9.1,11.1-15.2c-12.4-2.8-26.8,3.2-35.4,11.6
	c-1.2,1.2-2.2,2.5-3.2,3.8c0.4-2.6,0.6-5.3,0.6-8c-0.2-7.9-2.5-15.5-6.8-22.2c-1.8-2.9-4-5.6-6.5-7.9c-1.9-1.6-5.8-4.8-8.9-5.6
	c-2.7,6.2-4.5,8.6-4.2,17.5C125.2,43.4,136.9,58.9,157.1,58.9L157.1,58.9z"/>
<path class="st1" d="M166.8,122.7c-1.8-2.4-4.1-4.5-6.6-6.1c-1.3-0.9-2.7-1.7-4.2-2.3c-1.3-0.5-4.2-1.2-4.7-1.6
	c1.4-0.9,2.7-1.8,3.9-2.9c3.5-3.4,6-7.7,7.1-12.4c1.8-6.8,0.7-16.4-2.2-22c-9.5-18.4-33.2-16.4-51.4-16.4v115.4h24.5
	c19.9,0,40.5-7.8,40.5-31.8C173.7,135.4,171.3,128.4,166.8,122.7z M122.5,71.9c6.1-0.6,15.2,0.4,20,3c10.3,5.7,9.5,25.2,1.6,31
	c-5.1,3.8-14.6,4.7-21.5,4.1L122.5,71.9z M136.5,161.6c-4.7,0.3-9.3,0.3-14,0l0-39.9c7.7-0.6,19.2,0.1,25.6,2.8
	c6.6,2.8,11.6,8,11.4,17.3C159.2,156.3,148.4,160.8,136.5,161.6L136.5,161.6z"/>
<path class="st1" d="M93.2,61.4c-9.4-6.8-21.6,2.1-27.2,6.8C43.1,87,15.2,128.3,15.1,174.3l14.6-0.1c0-7.1,0.7-14.2,2.2-21.2
	c0.2-0.9,1-5.8,1.7-6h50v27.6l14.6-0.1V76.2C98.2,69.7,97.4,64.5,93.2,61.4z M83.5,132.9H37.9c1.2-4.2,6.2-13.8,8.5-17.8
	c3.1-5.5,6.6-10.8,10.4-15.8c5.6-7.4,18.1-21.9,26.8-25.3C83.6,93.6,83.7,113.5,83.5,132.9z"/>
</svg>
