<?xml version="1.0" encoding="utf-8"?>
<!-- Generator: Adobe Illustrator 25.2.1, SVG Export Plug-In . SVG Version: 6.00 Build 0)  -->
<svg version="1.1" id="Calque_1" xmlns="http://www.w3.org/2000/svg" xmlns:xlink="http://www.w3.org/1999/xlink" x="0px" y="0px"
	 viewBox="0 0 54.7 54.6" style="enable-background:new 0 0 54.7 54.6;" xml:space="preserve">
<style type="text/css">
	.st0{fill:#FF7F00;}
</style>
<path class="st0" d="M52.3,2.3c-2.2-2.1-5.5-3.1-7.9-1.5c-6.1,3.5-19.1-6.1-34.3,8.9s-5.9,28-9.5,34.6c-1.3,2.1-0.5,5.8,1.7,8
	c2.2,2.1,6,2.8,8.1,1.6C17,50.3,30,59.7,45,44.5s5.4-28.2,8.9-34.3C55.6,7.7,54.5,4.6,52.3,2.3z M27.1,9.8
	C21.6,11.6,17,15,13.6,19.8C11,23.5,10,26.6,10,26.6c-0.2,0.8-0.9,1.3-1.7,1.3c-0.2,0-0.3,0-0.5-0.1c-0.9-0.3-1.5-1.3-1.2-2.2
	c0-0.1,1.1-3.6,4-7.7C13.3,14.1,18.1,9,26,6.4c0.9-0.3,2,0.2,2.3,1.1S28.1,9.4,27.1,9.8z"/>
</svg>
