<?xml version="1.0" encoding="utf-8"?>
<!-- Generator: Adobe Illustrator 26.2.1, SVG Export Plug-In . SVG Version: 6.00 Build 0)  -->
<svg version="1.1" xmlns="http://www.w3.org/2000/svg" xmlns:xlink="http://www.w3.org/1999/xlink" x="0px" y="0px"
	 viewBox="0 0 343.2 492.7" style="enable-background:new 0 0 343.2 492.7;" xml:space="preserve">
<style type="text/css">
	.st0{display:none;}
	.st1{display:inline;}
	.st2{fill:#FF7F00;}
	.st3{display:inline;fill:#FF7F00;}
	.st4{display:inline;enable-background:new    ;}
	.st5{fill:#FFBB33;}
	.st6{enable-background:new    ;}
</style>
<g id="Calque_2" class="st0">
	
		<image style="display:inline;overflow:visible;" width="434" height="359" xlink:href="FA2EA87E.jpg"  transform="matrix(1.608 0 0 1.608 -354.6776 -8.7697)">
	</image>
</g>
<g id="Calque_1" class="st0">
	<g id="a_00000050656658258572113550000012986962772866943664_" class="st1">
	</g>
	<g id="b_00000160884440574891172690000016328004401660517558_" class="st1">
		<g id="c_00000126302086405458989030000009681802151215633327_">
			<path class="st2" d="M166,61.2c-21.6,1-42.1,12.9-45.5,33.9C108.6,144.7-2.4,164.2,0.1,318.4c2.5,154.2,112.8,170,128.9,221.9
				c4.7,17.3,26.7,31.2,48.4,31.2c21.6-1,43-16.9,46.9-34.5c13.7-52.6,123.3-73.6,118.9-227.8S226.9,140.9,212.9,91.9
				C208.6,71.1,187.6,61.2,166,61.2z M82.3,229.6c-17.2,38.3-22,78.9-14.3,120.8c5.8,31.6,16.9,52.2,17,52.4
				c2.8,5.1,1.9,11.3-1.8,15.3c-0.8,0.9-1.8,1.7-2.8,2.3c-6,3.5-13.6,1.4-17-4.8c-0.5-1-13-23.8-19.7-59.3
				c-6.1-32.8-8.3-83.3,16-137.6c2.9-6.5,10.3-9.3,16.6-6.3C82.5,215.4,85.2,223.1,82.3,229.6L82.3,229.6z"/>
		</g>
	</g>
</g>
<g id="Calque_3" class="st0">
	<rect x="0.5" y="-0.2" class="st3" width="342.7" height="61.4"/>
	<g class="st4">
		<path class="st5" d="M0.5,60.7v-61h41.8V10H12.9v14.4h25.5v10.3H12.9v25.9H0.5z"/>
		<path class="st5" d="M82.4,60.7H70.7V16.5h10.9v6.3c1.9-3,3.5-4.9,5-5.9c1.5-0.9,3.2-1.4,5.1-1.4c2.7,0,5.2,0.7,7.7,2.2l-3.6,10.2
			c-2-1.3-3.8-1.9-5.5-1.9c-1.6,0-3,0.5-4.2,1.4c-1.1,0.9-2,2.5-2.7,4.9c-0.7,2.4-1,7.3-1,14.8V60.7z"/>
		<path class="st5" d="M152.3,60.7v-6.6c-1.6,2.4-3.7,4.2-6.3,5.6s-5.4,2-8.3,2c-3,0-5.6-0.7-8-2c-2.4-1.3-4.1-3.1-5.1-5.5
			c-1.1-2.4-1.6-5.6-1.6-9.8v-28h11.7v20.3c0,6.2,0.2,10,0.6,11.4c0.4,1.4,1.2,2.5,2.4,3.3c1.1,0.8,2.6,1.2,4.3,1.2
			c2,0,3.8-0.5,5.4-1.6c1.6-1.1,2.7-2.5,3.2-4.1c0.6-1.6,0.9-5.6,0.9-11.9V16.5h11.7v44.2H152.3z"/>
		<path class="st5" d="M201.5,10.5V-0.3h11.7v10.8H201.5z M201.5,60.7V16.5h11.7v44.2H201.5z"/>
		<path class="st5" d="M271.7,16.5v9.3h-8v17.8c0,3.6,0.1,5.7,0.2,6.3s0.5,1.1,1,1.5c0.5,0.4,1.2,0.6,2,0.6c1.1,0,2.6-0.4,4.7-1.1
			l1,9.1c-2.7,1.2-5.8,1.7-9.2,1.7c-2.1,0-4-0.4-5.7-1.1s-2.9-1.6-3.7-2.7s-1.3-2.6-1.6-4.6c-0.2-1.4-0.4-4.1-0.4-8.2V25.9h-5.4
			v-9.3h5.4V7.8l11.7-6.8v15.6H271.7z"/>
		<path class="st5" d="M301.9,48.1l11.7-1.8c0.5,2.3,1.5,4,3,5.2c1.5,1.2,3.7,1.8,6.4,1.8c3,0,5.3-0.6,6.8-1.7
			c1-0.8,1.5-1.8,1.5-3.1c0-0.9-0.3-1.6-0.8-2.2c-0.6-0.6-1.9-1.1-3.9-1.5c-9.4-2.1-15.4-4-17.9-5.7c-3.5-2.4-5.2-5.7-5.2-9.9
			c0-3.8,1.5-7,4.5-9.7c3-2.6,7.7-3.9,14.1-3.9c6,0,10.5,1,13.5,3c2.9,2,5,4.9,6.1,8.7l-11,2c-0.5-1.7-1.4-3-2.7-4
			c-1.3-0.9-3.2-1.4-5.6-1.4c-3.1,0-5.3,0.4-6.6,1.3c-0.9,0.6-1.3,1.4-1.3,2.4c0,0.8,0.4,1.5,1.2,2.1c1.1,0.8,4.7,1.9,10.9,3.3
			c6.2,1.4,10.6,3.1,13,5.2c2.4,2.1,3.7,5,3.7,8.7c0,4-1.7,7.5-5.1,10.4c-3.4,2.9-8.4,4.4-15,4.4c-6,0-10.8-1.2-14.3-3.7
			C305.3,55.6,303,52.3,301.9,48.1z"/>
	</g>
</g>
<g id="Calque_4">
	<g id="b_00000029726508162593200790000002044951920076113823_">
		<g id="c_00000049196619420484588790000010331150953104819118_">
			<path class="st2" d="M153.6,56.7c-18.5,0.9-36,11.1-38.8,29c-10.1,42.3-105,59-102.9,190.8c2.1,131.7,96.4,145.2,110.1,189.5
				c4,14.8,22.8,26.7,41.3,26.7c18.5-0.9,36.7-14.5,40.1-29.4c11.7-44.9,105.3-62.9,101.6-194.6S205.6,124.8,193.6,83
				C190,65.2,172,56.7,153.6,56.7z M82.1,200.6C67.5,233.3,63.3,268,69.9,303.8c4.9,27,14.4,44.6,14.5,44.7
				c2.4,4.3,1.6,9.7-1.6,13.1c-0.7,0.8-1.5,1.4-2.4,2c-5.1,3-11.6,1.2-14.5-4.1c-0.5-0.8-11.1-20.3-16.8-50.7
				c-5.2-28-7.1-71.1,13.7-117.5c2.5-5.5,8.8-7.9,14.2-5.4C82.3,188.5,84.6,195.1,82.1,200.6L82.1,200.6z"/>
		</g>
	</g>
	<rect x="0.4" y="0.1" class="st2" width="316.4" height="56.7"/>
	<g class="st6">
		<path class="st5" d="M0.4,56.3V0H39v9.5H11.8v13.3h23.5v9.5H11.8v23.9H0.4z"/>
		<path class="st5" d="M76,56.3H65.3V15.5h10v5.8c1.7-2.7,3.3-4.5,4.6-5.4c1.4-0.9,2.9-1.3,4.7-1.3c2.5,0,4.8,0.7,7.1,2L88.3,26
			c-1.8-1.2-3.5-1.8-5.1-1.8c-1.5,0-2.8,0.4-3.8,1.2c-1,0.8-1.9,2.3-2.5,4.5c-0.6,2.2-0.9,6.7-0.9,13.7V56.3z"/>
		<path class="st5" d="M140.5,56.3v-6.1c-1.5,2.2-3.4,3.9-5.9,5.1s-5,1.9-7.7,1.9c-2.7,0-5.2-0.6-7.4-1.8c-2.2-1.2-3.8-2.9-4.7-5.1
			c-1-2.2-1.5-5.2-1.5-9V15.5h10.8v18.7c0,5.7,0.2,9.2,0.6,10.5c0.4,1.3,1.1,2.3,2.2,3.1c1,0.8,2.4,1.1,4,1.1c1.8,0,3.5-0.5,5-1.5
			c1.5-1,2.5-2.3,3-3.8c0.5-1.5,0.8-5.2,0.8-11V15.5h10.8v40.8H140.5z"/>
		<path class="st5" d="M186,10V0h10.8v10H186z M186,56.3V15.5h10.8v40.8H186z"/>
		<path class="st5" d="M250.8,15.5v8.6h-7.4v16.4c0,3.3,0.1,5.3,0.2,5.8c0.1,0.6,0.5,1,1,1.4c0.5,0.4,1.1,0.5,1.8,0.5
			c1,0,2.4-0.3,4.3-1l0.9,8.4c-2.5,1.1-5.4,1.6-8.5,1.6c-1.9,0-3.7-0.3-5.3-1c-1.6-0.7-2.7-1.5-3.4-2.5s-1.2-2.4-1.5-4.2
			c-0.2-1.3-0.3-3.8-0.3-7.6V24.1h-5v-8.6h5V7.4l10.8-6.3v14.4H250.8z"/>
		<path class="st5" d="M278.7,44.7l10.8-1.7c0.5,2.1,1.4,3.7,2.8,4.8c1.4,1.1,3.4,1.6,5.9,1.6c2.8,0,4.9-0.5,6.3-1.5
			c0.9-0.7,1.4-1.7,1.4-2.9c0-0.8-0.3-1.5-0.8-2c-0.5-0.5-1.7-1-3.6-1.4c-8.7-1.9-14.2-3.7-16.6-5.3c-3.2-2.2-4.8-5.3-4.8-9.2
			c0-3.5,1.4-6.5,4.2-8.9c2.8-2.4,7.1-3.6,13-3.6c5.6,0,9.7,0.9,12.4,2.7c2.7,1.8,4.6,4.5,5.6,8.1l-10.2,1.9
			c-0.4-1.6-1.3-2.8-2.5-3.6c-1.2-0.8-3-1.3-5.2-1.3c-2.8,0-4.9,0.4-6.1,1.2c-0.8,0.6-1.2,1.3-1.2,2.2c0,0.8,0.4,1.4,1.1,2
			c1,0.7,4.3,1.7,10.1,3c5.7,1.3,9.8,2.9,12,4.8c2.3,1.9,3.4,4.6,3.4,8c0,3.7-1.6,7-4.7,9.6c-3.1,2.7-7.7,4-13.9,4
			c-5.6,0-10-1.1-13.2-3.4C281.8,51.6,279.7,48.5,278.7,44.7z"/>
	</g>
</g>
</svg>
