<?xml version="1.0" encoding="iso-8859-1"?>
<!-- Generator: Adobe Illustrator 24.3.0, SVG Export Plug-In . SVG Version: 6.00 Build 0)  -->
<svg version="1.1" id="Calque_1" xmlns="http://www.w3.org/2000/svg" xmlns:xlink="http://www.w3.org/1999/xlink" x="0px" y="0px"
	 viewBox="0 0 12.883 31.355" style="enable-background:new 0 0 12.883 31.355;" xml:space="preserve">
<text transform="matrix(1 0 0 1 -12.9624 -5.9434)" style="font-family:'MyriadPro-Regular'; font-size:12px;">transformation x0, y0, h11,1</text>
<g>
	<polygon style="fill:#020203;" points="11.917,0 8.027,3.661 6.139,0 4.423,3.661 0.933,0 6.254,11.384 	"/>
	<path style="fill:#020203;" d="M6.425,12.643c-3.547,0-6.693,3.661-6.407,6.579c0.114,1.201,1.259,6.522,2.574,12.185l7.838,0.057
		c1.316-5.606,2.46-10.87,2.46-12.243C12.776,15.618,9.972,12.7,6.425,12.643z M8.885,26.602c0,0.229-0.229,0.458-0.458,0.458H4.366
		c-0.229,0-0.458-0.229-0.458-0.458v-0.286c0-0.229,0.172-0.458,0.458-0.458h4.062c0.229,0,0.458,0.229,0.458,0.458V26.602z
		 M9,23.97H3.851c-0.343,0-0.572-0.229-0.572-0.572v-0.343c0-0.343,0.229-0.572,0.572-0.572h5.092c0.343,0,0.572,0.229,0.572,0.572
		l0.057,0.343C9.572,23.741,9.343,23.97,9,23.97z M9.286,20.652H3.622c-0.343,0-0.572-0.229-0.572-0.572v-0.286
		c0-0.343,0.229-0.572,0.572-0.629h5.606c0.343,0,0.572,0.286,0.572,0.629l0.057,0.286C9.858,20.423,9.629,20.652,9.286,20.652z"/>
</g>
</svg>
