<?xml version="1.0" encoding="utf-8"?>
<!-- Generator: Adobe Illustrator 26.2.1, SVG Export Plug-In . SVG Version: 6.00 Build 0)  -->
<svg version="1.1" id="Calque_3" xmlns="http://www.w3.org/2000/svg" xmlns:xlink="http://www.w3.org/1999/xlink" x="0px" y="0px"
	 viewBox="0 0 56 55" style="enable-background:new 0 0 56 55;" xml:space="preserve">
<style type="text/css">
	.st0{fill:#592673;}
</style>
<g>
	<path class="st0" d="M42.9,7.4h0.8c2.1,0,3.8-1.7,3.8-3.8s-1.7-3.8-3.8-3.8H13c-2.1,0-3.8,1.7-3.8,3.8s1.7,3.8,3.8,3.8h0.5
		c-2.6,2-4.4,5.2-4.4,8.8v28.2c0,6.1,5,11.1,11.1,11.1h16c6.1,0,11.1-5,11.1-11.1V16.2C47.3,12.7,45.5,9.5,42.9,7.4z M42.1,44.5
		c0,3.3-2.7,5.9-5.9,5.9h-16c-3.3,0-5.9-2.7-5.9-5.9V16.2c0-3.3,2.7-5.9,5.9-5.9h16c3.3,0,5.9,2.7,5.9,5.9V44.5z"/>
	<path class="st0" d="M20.6,14.9c-0.8,0-1.5,0.7-1.5,1.5v14.5c0,0.8,0.7,1.5,1.5,1.5s1.5-0.7,1.5-1.5V16.4
		C22.1,15.6,21.4,14.9,20.6,14.9z"/>
	<path class="st0" d="M20.6,34.6c-0.8,0-1.5,0.7-1.5,1.5V43c0,0.8,0.7,1.5,1.5,1.5s1.5-0.7,1.5-1.5v-6.9
		C22.1,35.3,21.4,34.6,20.6,34.6z"/>
</g>
</svg>
