<?xml version="1.0" encoding="utf-8"?>
<!-- Generator: Adobe Illustrator 26.2.1, SVG Export Plug-In . SVG Version: 6.00 Build 0)  -->
<svg version="1.1" id="Calque_1" xmlns="http://www.w3.org/2000/svg" xmlns:xlink="http://www.w3.org/1999/xlink" x="0px" y="0px"
	 viewBox="0 0 343.2 492.7" style="enable-background:new 0 0 343.2 492.7;" xml:space="preserve">
<style type="text/css">
	.st0{display:none;}
	.st1{display:inline;}
	.st2{fill:#FF7F00;}
	.st3{enable-background:new    ;}
	.st4{fill:#FFBB33;}
	.st5{display:inline;fill:#FF7F00;}
	.st6{display:inline;enable-background:new    ;}
	.st7{fill:#006C00;}
	.st8{fill:#682D86;}
	.st9{fill:#AA66CC;}
</style>
<g id="Calque_1_00000029740692773878900440000000252829170765680526_" class="st0">
	<g id="Calque_2_00000163771497706467565800000006435373075561443728_" class="st1">
		
			<image style="overflow:visible;enable-background:new    ;" width="437" height="361" xlink:href="FA2EA87E.jpg"  transform="matrix(1.5978 0 0 1.5978 -354.8665 -8.5412)">
		</image>
	</g>
	<g id="Calque_1_00000121973385868503727490000007345258420270851245_" class="st1">
		<g id="a_00000050656658258572113550000012986962772866943664_">
		</g>
		<g id="b_00000160884440574891172690000016328004401660517558_">
			<g id="c_00000126302086405458989030000009681802151215633327_">
				<path class="st2" d="M166,61.2c-21.6,1-42.1,12.9-45.5,33.9C108.6,144.7-2.4,164.2,0.1,318.4s112.8,170,128.9,221.9
					c4.7,17.3,26.7,31.2,48.4,31.2c21.6-1,43-16.9,46.9-34.5c13.7-52.6,123.3-73.6,118.9-227.8S226.9,140.9,212.9,91.9
					C208.6,71.1,187.6,61.2,166,61.2z M82.3,229.6c-17.2,38.3-22,78.9-14.3,120.8c5.8,31.6,16.9,52.2,17,52.4
					c2.8,5.1,1.9,11.3-1.8,15.3c-0.8,0.9-1.8,1.7-2.8,2.3c-6,3.5-13.6,1.4-17-4.8c-0.5-1-13-23.8-19.7-59.3
					c-6.1-32.8-8.3-83.3,16-137.6c2.9-6.5,10.3-9.3,16.6-6.3C82.5,215.4,85.2,223.1,82.3,229.6L82.3,229.6z"/>
			</g>
		</g>
	</g>
	<g id="Calque_3" class="st1">
		<rect x="0.5" y="-0.2" class="st2" width="342.7" height="61.4"/>
		<g class="st3">
			<path class="st4" d="M0.5,60.7v-61h41.8V10H12.9v14.4h25.5v10.3H12.9v25.9H0.5V60.7z"/>
			<path class="st4" d="M82.4,60.7H70.7V16.5h10.9v6.3c1.9-3,3.5-4.9,5-5.9c1.5-0.9,3.2-1.4,5.1-1.4c2.7,0,5.2,0.7,7.7,2.2
				l-3.6,10.2c-2-1.3-3.8-1.9-5.5-1.9c-1.6,0-3,0.5-4.2,1.4c-1.1,0.9-2,2.5-2.7,4.9s-1,7.3-1,14.8V60.7z"/>
			<path class="st4" d="M152.3,60.7v-6.6c-1.6,2.4-3.7,4.2-6.3,5.6s-5.4,2-8.3,2c-3,0-5.6-0.7-8-2c-2.4-1.3-4.1-3.1-5.1-5.5
				c-1.1-2.4-1.6-5.6-1.6-9.8v-28h11.7v20.3c0,6.2,0.2,10,0.6,11.4c0.4,1.4,1.2,2.5,2.4,3.3c1.1,0.8,2.6,1.2,4.3,1.2
				c2,0,3.8-0.5,5.4-1.6c1.6-1.1,2.7-2.5,3.2-4.1c0.6-1.6,0.9-5.6,0.9-11.9V16.5h11.7v44.2H152.3z"/>
			<path class="st4" d="M201.5,10.5V-0.3h11.7v10.8H201.5z M201.5,60.7V16.5h11.7v44.2H201.5z"/>
			<path class="st4" d="M271.7,16.5v9.3h-8v17.8c0,3.6,0.1,5.7,0.2,6.3s0.5,1.1,1,1.5s1.2,0.6,2,0.6c1.1,0,2.6-0.4,4.7-1.1l1,9.1
				c-2.7,1.2-5.8,1.7-9.2,1.7c-2.1,0-4-0.4-5.7-1.1s-2.9-1.6-3.7-2.7s-1.3-2.6-1.6-4.6c-0.2-1.4-0.4-4.1-0.4-8.2V25.9h-5.4v-9.3h5.4
				V7.8L263.7,1v15.6h8V16.5z"/>
			<path class="st4" d="M301.9,48.1l11.7-1.8c0.5,2.3,1.5,4,3,5.2s3.7,1.8,6.4,1.8c3,0,5.3-0.6,6.8-1.7c1-0.8,1.5-1.8,1.5-3.1
				c0-0.9-0.3-1.6-0.8-2.2c-0.6-0.6-1.9-1.1-3.9-1.5c-9.4-2.1-15.4-4-17.9-5.7c-3.5-2.4-5.2-5.7-5.2-9.9c0-3.8,1.5-7,4.5-9.7
				c3-2.6,7.7-3.9,14.1-3.9c6,0,10.5,1,13.5,3c2.9,2,5,4.9,6.1,8.7l-11,2c-0.5-1.7-1.4-3-2.7-4c-1.3-0.9-3.2-1.4-5.6-1.4
				c-3.1,0-5.3,0.4-6.6,1.3c-0.9,0.6-1.3,1.4-1.3,2.4c0,0.8,0.4,1.5,1.2,2.1c1.1,0.8,4.7,1.9,10.9,3.3c6.2,1.4,10.6,3.1,13,5.2
				c2.4,2.1,3.7,5,3.7,8.7c0,4-1.7,7.5-5.1,10.4s-8.4,4.4-15,4.4c-6,0-10.8-1.2-14.3-3.7C305.3,55.6,303,52.3,301.9,48.1z"/>
		</g>
	</g>
	<g id="b_00000029726508162593200790000002044951920076113823_" class="st1">
		<g id="c_00000049196619420484588790000010331150953104819118_">
			<path class="st2" d="M153.6,56.7c-18.5,0.9-36,11.1-38.8,29c-10.1,42.3-105,59-102.9,190.8C14,408.2,108.3,421.7,122,466
				c4,14.8,22.8,26.7,41.3,26.7c18.5-0.9,36.7-14.5,40.1-29.4c11.7-44.9,105.3-62.9,101.6-194.6S205.6,124.8,193.6,83
				C190,65.2,172,56.7,153.6,56.7z M82.1,200.6C67.5,233.3,63.3,268,69.9,303.8c4.9,27,14.4,44.6,14.5,44.7
				c2.4,4.3,1.6,9.7-1.6,13.1c-0.7,0.8-1.5,1.4-2.4,2c-5.1,3-11.6,1.2-14.5-4.1c-0.5-0.8-11.1-20.3-16.8-50.7
				c-5.2-28-7.1-71.1,13.7-117.5c2.5-5.5,8.8-7.9,14.2-5.4C82.3,188.5,84.6,195.1,82.1,200.6L82.1,200.6z"/>
		</g>
	</g>
	<rect x="0.4" y="0.1" class="st5" width="316.4" height="56.7"/>
	<g class="st6">
		<path class="st4" d="M0.4,56.3V0H39v9.5H11.8v13.3h23.5v9.5H11.8v23.9H0.4V56.3z"/>
		<path class="st4" d="M76,56.3H65.3V15.5h10v5.8c1.7-2.7,3.3-4.5,4.6-5.4c1.4-0.9,2.9-1.3,4.7-1.3c2.5,0,4.8,0.7,7.1,2L88.3,26
			c-1.8-1.2-3.5-1.8-5.1-1.8c-1.5,0-2.8,0.4-3.8,1.2c-1,0.8-1.9,2.3-2.5,4.5S76,36.6,76,43.6V56.3z"/>
		<path class="st4" d="M140.5,56.3v-6.1c-1.5,2.2-3.4,3.9-5.9,5.1s-5,1.9-7.7,1.9s-5.2-0.6-7.4-1.8c-2.2-1.2-3.8-2.9-4.7-5.1
			c-1-2.2-1.5-5.2-1.5-9V15.5h10.8v18.7c0,5.7,0.2,9.2,0.6,10.5s1.1,2.3,2.2,3.1c1,0.8,2.4,1.1,4,1.1c1.8,0,3.5-0.5,5-1.5
			s2.5-2.3,3-3.8s0.8-5.2,0.8-11V15.5h10.8v40.8H140.5z"/>
		<path class="st4" d="M186,10V0h10.8v10H186z M186,56.3V15.5h10.8v40.8H186z"/>
		<path class="st4" d="M250.8,15.5v8.6h-7.4v16.4c0,3.3,0.1,5.3,0.2,5.8c0.1,0.6,0.5,1,1,1.4s1.1,0.5,1.8,0.5c1,0,2.4-0.3,4.3-1
			l0.9,8.4c-2.5,1.1-5.4,1.6-8.5,1.6c-1.9,0-3.7-0.3-5.3-1s-2.7-1.5-3.4-2.5s-1.2-2.4-1.5-4.2c-0.2-1.3-0.3-3.8-0.3-7.6V24.1h-5
			v-8.6h5V7.4l10.8-6.3v14.4H250.8z"/>
		<path class="st4" d="M278.7,44.7l10.8-1.7c0.5,2.1,1.4,3.7,2.8,4.8s3.4,1.6,5.9,1.6c2.8,0,4.9-0.5,6.3-1.5
			c0.9-0.7,1.4-1.7,1.4-2.9c0-0.8-0.3-1.5-0.8-2s-1.7-1-3.6-1.4c-8.7-1.9-14.2-3.7-16.6-5.3c-3.2-2.2-4.8-5.3-4.8-9.2
			c0-3.5,1.4-6.5,4.2-8.9c2.8-2.4,7.1-3.6,13-3.6c5.6,0,9.7,0.9,12.4,2.7c2.7,1.8,4.6,4.5,5.6,8.1l-10.2,1.9
			c-0.4-1.6-1.3-2.8-2.5-3.6c-1.2-0.8-3-1.3-5.2-1.3c-2.8,0-4.9,0.4-6.1,1.2c-0.8,0.6-1.2,1.3-1.2,2.2c0,0.8,0.4,1.4,1.1,2
			c1,0.7,4.3,1.7,10.1,3c5.7,1.3,9.8,2.9,12,4.8c2.3,1.9,3.4,4.6,3.4,8c0,3.7-1.6,7-4.7,9.6c-3.1,2.7-7.7,4-13.9,4
			c-5.6,0-10-1.1-13.2-3.4C281.8,51.6,279.7,48.5,278.7,44.7z"/>
	</g>
</g>
<g id="Calque_2_00000160869703323007152090000011859262852727261338_" class="st0">
	<g class="st1">
		<path class="st7" d="M213.8,187c0.8,2.7,3.1,4.4,5.5,4.4l0,0c2.4,0,4.7-1.8,5.5-4.4l78.4-175.5c1.6-3.5,0.8-7.1-1.6-8.9
			s-6.3-1.8-8.6,0.9l-47,49.6L224.8,4.4c-1.6-1.8-3.9-3.5-6.3-3.5l0,0c-2.4,0-4.7,1.8-5.5,4.4l-19.6,46.1L151.9,2.7
			c-2.4-2.7-5.5-2.7-8.6-0.9c-2.4,1.8-3.1,6.2-2.4,8.9L213.8,187z"/>
		<path class="st7" d="M322.8,447.5H286c14.1-68.2,24.3-125.8,25.1-143.6c-0.8-54.9-40-99.2-88.6-101c-48.6,0-91.7,55.8-87.8,100.1
			c1.6,16,12.5,74.4,26.7,143.6h-39.2c-11,0-20.4,10.6-20.4,23s9.4,23,20.4,23h200.7c11,0,20.4-10.6,20.4-23
			S333.8,447.5,322.8,447.5z M250.7,425.4H195c-3.1,0-6.3-3.5-6.3-7.1v-4.4c0-3.5,2.4-7.1,6.3-7.1l0,0h55.7c3.1,0,6.3,3.5,6.3,7.1
			l0,0v4.4C256.9,421.8,253.8,425.4,250.7,425.4z M257.7,376.6h-70.6c-4.7,0-7.8-3.5-7.8-8.9v-5.3c0-5.3,3.1-8.9,7.8-8.9h69.8
			c4.7,0,7.8,3.5,7.8,8.9v5.3C265.6,373.1,261.7,376.6,257.7,376.6z M261.7,326.1H184c-4.7,0-7.8-3.5-7.8-8.9v-4.4
			c0-5.3,3.1-8.9,7.8-9.7h76.8c4.7,0,7.8,4.4,7.8,9.7l0.8,4.4C269.5,322.6,265.6,326.1,261.7,326.1z"/>
	</g>
	<g class="st6">
		<path class="st7" d="M101.7,492.7H28.8v-16.8H90v-40.8h12.5v57.6L101.7,492.7L101.7,492.7z"/>
		<path class="st7" d="M42.1,407.6l-15.7-8v-17.7l14.9,16v9.7H42.1z M84.4,388.1l2.4-16c5.5,2.7,9.4,5.3,12.5,9.7
			c2.4,4.4,3.9,9.7,3.9,16.8c0,10.6-3.1,17.7-9.4,23c-4.7,3.5-11,6.2-18.8,6.2c-8.6,0-15.7-2.7-21.2-8c-4.7-5.3-7.8-11.5-7.8-19.5
			c0-8.9,2.4-16,7.8-21.3c6.3-5.3,14.1-8,25.1-8v39.9c3.9,0,7.8-1.8,9.4-3.5c2.4-2.7,3.1-5.3,3.1-8.9c0-2.7-0.8-4.4-1.6-6.2
			C89.1,390.8,87.6,389,84.4,388.1z M70.3,387.2c-3.9,0-7.1,0.9-9.4,3.5c-2.4,2.7-3.1,5.3-3.1,8c0,3.5,0.8,6.2,3.1,8.9
			c2.4,2.7,5.5,3.5,9.4,3.5V387.2z"/>
		<path class="st7" d="M105.6,359.8l2.4-17.7c1.6,0,3.1-0.9,3.9-1.8c0.8-1.8,1.6-3.5,1.6-7.1c0-4.4-0.8-7.1-1.6-9.7
			c-0.8-1.8-1.6-2.7-3.9-3.5c-1.6,0-3.9,0-7.1,0h-7.8c5.5,4.4,8.6,10.6,8.6,17.7c0,8-3.1,14.2-9.4,19.5c-4.7,3.5-11,5.3-18,5.3
			c-8.6,0-15.7-2.7-20.4-7.1s-7.1-10.6-7.1-17.7s3.1-13.3,8.6-18.6h-7.8V304h47.8c6.3,0,11,0.9,14.1,1.8s5.5,2.7,7.1,5.3
			c1.6,1.8,3.1,5.3,3.9,8.9c0.8,3.5,1.6,8,1.6,13.3c0,9.7-1.6,17.7-4.7,21.3c-3.1,4.4-7.1,6.2-11.8,6.2
			C106.4,359.8,106.4,359.8,105.6,359.8z M74.2,345.6c5.5,0,10.2-0.9,12.5-3.5c2.4-2.7,3.9-5.3,3.9-8.9s-1.6-7.1-3.9-9.7
			c-2.4-2.7-7.1-4.4-11.8-4.4c-5.5,0-9.4,0.9-12.5,3.5s-4.7,6.2-4.7,10.6c0,3.5,1.6,7.1,3.9,9.7C64.8,344.7,68.8,345.6,74.2,345.6z"
			/>
		<path class="st7" d="M101.7,249h-7.8c3.1,1.8,5.5,5.3,7.1,8.9c1.6,3.5,2.4,7.1,2.4,11.5s-0.8,8-2.4,10.6s-3.9,4.4-7.1,6.2
			s-7.1,1.8-11.8,1.8H48.4v-16h24.3c7.8,0,11.8,0,14.1-0.9c1.6-0.9,3.1-1.8,3.9-3.5c0.8-0.9,1.6-2.7,1.6-5.3s-0.8-5.3-2.4-7.1
			s-3.1-3.5-4.7-4.4c-2.4-0.9-7.1-0.9-14.1-0.9H48.4v-16h53.3V249z"/>
		<path class="st7" d="M48.4,218.9v-14.2h7.1c-5.5-5.3-8.6-11.5-8.6-18.6c0-3.5,0.8-7.1,2.4-9.7c1.6-2.7,3.9-5.3,6.3-7.1
			c-3.1-2.7-4.7-5.3-6.3-8.9c-1.6-2.7-2.4-6.2-2.4-9.7c0-4.4,0.8-8,2.4-11.5c1.6-2.7,3.9-5.3,7.1-7.1c2.4-0.9,6.3-1.8,11-1.8h34.5
			v16H71.1c-5.5,0-8.6,0.9-10.2,1.8c-2.4,1.8-3.1,3.5-3.1,7.1c0,2.7,0.8,4.4,1.6,6.2c1.6,1.8,3.1,3.5,5.5,4.4
			c2.4,0.9,6.3,0.9,11,0.9h25.9v16h-29c-5.5,0-8.6,0-10.2,0.9c-1.6,0.9-2.4,1.8-3.1,2.7c-0.8,0.9-0.8,2.7-0.8,4.4
			c0,2.7,0.8,4.4,1.6,6.2s3.1,3.5,4.7,4.4s6.3,0.9,11,0.9h25.9v16H48.4V218.9z"/>
		<path class="st7" d="M84.4,79.8l2.4-16c5.5,2.7,9.4,6.2,12.5,10.6c2.4,4.4,3.9,9.7,3.9,16.8c0,10.6-3.1,17.7-9.4,23
			c-4.7,3.5-11,6.2-18.8,6.2c-8.6,0-15.7-2.7-21.2-8C49.2,107.2,46,101,46,93c0-8.9,2.4-16,7.8-21.3c6.3-6.2,14.1-8.9,25.1-8v39.9
			c3.9,0,7.8-1.8,9.4-3.5c2.4-2.7,3.1-5.3,3.1-8.9c0-2.7-0.8-4.4-1.6-6.2C89.1,82.4,87.6,80.6,84.4,79.8z M70.3,78.9
			c-3.9,0.9-7.1,1.8-9.4,3.5c-2.4,2.7-3.1,5.3-3.1,8c0,3.5,0.8,6.2,3.1,8.9c2.4,2.7,5.5,3.5,9.4,3.5V78.9z"/>
		<path class="st7" d="M86.8,55.8l-2.4-16c2.4,0,4.7-1.8,6.3-3.5c1.6-1.8,2.4-5.3,2.4-8.9c0-4.4-0.8-7.1-2.4-8.9
			c-0.8-1.8-2.4-2.7-3.9-2.7c-0.8,0-2.4,0-2.4,0.9c-0.8,0.9-1.6,2.7-1.6,6.2c-3.1,12.4-5.5,20.4-7.1,23.9c-3.1,4.4-7.1,7.1-12.5,7.1
			c-4.7,0-8.6-1.8-11.8-6.2s-4.7-10.6-4.7-18.6s1.6-14.2,3.9-18.6c2.4-3.5,6.3-7.1,11-8L64,17.6c-2.4,0-3.9,1.8-5.5,3.5
			C57.8,23,57,24.8,57,28.4c0,4.4,0.8,7.1,1.6,8.9c0.8,0.9,1.6,1.8,3.1,1.8c0.8,0,1.6-0.9,2.4-1.8c1.5-1,2.3-6.3,3.9-14.3
			c1.6-8.9,3.9-14.2,6.3-17.7S80.5,0,84.4,0c4.7,0,9.4,2.7,12.5,7.1c4.7,4.4,6.3,11.5,6.3,20.4c0,8-1.6,14.2-4.7,19.5
			C95.4,51.4,91.5,54.9,86.8,55.8z"/>
	</g>
	<g id="Calque_2_00000078029964599660736600000014549620945022008483_" class="st1">
		<rect x="97" y="468.8" class="st7" width="246.2" height="23.9"/>
	</g>
</g>
<rect x="27.1" y="432" class="st8" width="316.4" height="56.7"/>
<text transform="matrix(1.0081 0 0 1 -11.8267 643.0068)" style="font-family:'Arial-BoldMT'; font-size:79.8413px;">Produits</text>
<g>
	<path class="st9" d="M27.1,489.5v-57.2h18.7c7.1,0,11.7,0.3,13.8,0.9c3.3,0.9,6.1,2.7,8.3,5.6s3.3,6.6,3.3,11.1
		c0,3.5-0.6,6.5-1.9,8.8c-1.3,2.4-2.9,4.3-4.9,5.6c-2,1.4-4,2.3-6,2.7c-2.8,0.5-6.8,0.8-12.1,0.8h-7.6v21.6H27.1V489.5z M38.8,442
		v16.2h6.4c4.6,0,7.6-0.3,9.2-0.9c1.5-0.6,2.8-1.5,3.6-2.8c0.9-1.3,1.3-2.8,1.3-4.4c0-2.1-0.6-3.8-1.8-5.1s-2.8-2.2-4.7-2.5
		c-1.4-0.3-4.2-0.4-8.4-0.4h-5.6V442z"/>
	<path class="st9" d="M91.3,489.5h-11v-41.4h10.3v5.9c1.8-2.8,3.3-4.6,4.7-5.5c1.4-0.9,3-1.3,4.8-1.3c2.5,0,4.9,0.7,7.3,2.1
		l-3.4,9.6c-1.9-1.2-3.6-1.8-5.2-1.8c-1.5,0-2.9,0.4-3.9,1.3s-1.9,2.4-2.5,4.6s-0.9,6.8-0.9,13.9v12.6H91.3z"/>
	<path class="st9" d="M109.5,468.2c0-3.6,0.9-7.2,2.7-10.6c1.8-3.4,4.4-6,7.7-7.8c3.3-1.8,7-2.7,11.1-2.7c6.3,0,11.5,2,15.5,6.1
		s6.1,9.2,6.1,15.4c0,6.3-2,11.5-6.1,15.6s-9.2,6.2-15.4,6.2c-3.8,0-7.5-0.9-10.9-2.6c-3.5-1.7-6.1-4.2-7.9-7.5
		C110.4,477,109.5,472.9,109.5,468.2z M120.8,468.8c0,4.1,1,7.3,2.9,9.4c2,2.2,4.4,3.3,7.3,3.3s5.3-1.1,7.3-3.3
		c2-2.2,2.9-5.4,2.9-9.5s-1-7.2-2.9-9.4c-2-2.2-4.4-3.3-7.3-3.3c-2.9,0-5.3,1.1-7.3,3.3C121.8,461.5,120.8,464.7,120.8,468.8z"/>
	<path class="st9" d="M199.5,489.5h-10.3v-6.1c-1.7,2.4-3.7,4.1-6,5.3c-2.3,1.2-4.7,1.7-7,1.7c-4.8,0-8.9-1.9-12.3-5.8
		s-5.1-9.2-5.1-16c0-7,1.7-12.4,5-16s7.5-5.5,12.6-5.5c4.7,0,8.7,1.9,12.1,5.8v-20.6h11V489.5z M170,467.9c0,4.4,0.6,7.6,1.8,9.6
		c1.8,2.9,4.3,4.3,7.5,4.3c2.5,0,4.7-1.1,6.5-3.2s2.7-5.3,2.7-9.6c0-4.8-0.9-8.2-2.6-10.3s-3.9-3.1-6.6-3.1c-2.6,0-4.8,1-6.6,3.1
		S170,463.8,170,467.9z"/>
	<path class="st9" d="M237.9,489.5v-6.2c-1.5,2.2-3.5,4-6,5.2s-5.1,1.9-7.8,1.9c-2.8,0-5.3-0.6-7.5-1.8c-2.2-1.2-3.8-2.9-4.8-5.1
		s-1.5-5.3-1.5-9.2v-26.2h11v19c0,5.8,0.2,9.4,0.6,10.7s1.1,2.4,2.2,3.1c1.1,0.8,2.4,1.2,4.1,1.2c1.9,0,3.6-0.5,5.1-1.5
		s2.5-2.3,3.1-3.8s0.8-5.2,0.8-11.2v-17.5h11v41.4H237.9z"/>
	<path class="st9" d="M259.6,442.4v-10.1h11v10.1H259.6z M259.6,489.5v-41.4h11v41.4H259.6z"/>
	<path class="st9" d="M301.1,448.1v8.7h-7.5v16.7c0,3.4,0.1,5.3,0.2,5.9s0.5,1,1,1.4s1.1,0.5,1.9,0.5c1,0,2.5-0.4,4.4-1.1l0.9,8.5
		c-2.6,1.1-5.5,1.6-8.7,1.6c-2,0-3.8-0.3-5.4-1s-2.8-1.5-3.5-2.6s-1.3-2.5-1.6-4.3c-0.2-1.3-0.4-3.8-0.4-7.7v-18.1h-5.1v-8.7h5.1
		v-8.2l11.1-6.4v14.6h7.6V448.1z"/>
	<path class="st9" d="M304.8,477.6l11.1-1.7c0.5,2.1,1.4,3.8,2.9,4.9c1.4,1.1,3.5,1.7,6.1,1.7c2.9,0,5-0.5,6.4-1.6
		c1-0.7,1.5-1.7,1.5-2.9c0-0.8-0.3-1.5-0.8-2.1c-0.5-0.5-1.8-1-3.7-1.4c-8.9-1.9-14.6-3.7-16.9-5.3c-3.3-2.2-5-5.3-5-9.3
		c0-3.6,1.4-6.6,4.3-9s7.3-3.7,13.3-3.7c5.7,0,10,0.9,12.7,2.8c2.8,1.8,4.7,4.6,5.7,8.2L332,460c-0.4-1.6-1.3-2.8-2.5-3.7
		c-1.2-0.9-3-1.3-5.3-1.3c-2.9,0-5,0.4-6.2,1.2c-0.8,0.6-1.3,1.3-1.3,2.2c0,0.8,0.4,1.4,1.1,2c1,0.7,4.4,1.8,10.3,3.1
		c5.9,1.3,10,3,12.3,4.9s3.5,4.7,3.5,8.1c0,3.8-1.6,7.1-4.8,9.8c-3.2,2.7-7.9,4.1-14.2,4.1c-5.7,0-10.2-1.1-13.5-3.4
		C308,484.7,305.9,481.6,304.8,477.6z"/>
</g>
<g>
	<path class="st8" d="M289.4,59h5.9c15.5,0,28.1-13.2,28.1-29.5S310.8,0,295.3,0H68.1C52.6,0,40,13.2,40,29.5S52.6,59,68.1,59h3.7
		c-19.2,15.5-32.6,40.3-32.6,68.3V346c0,47.3,37,86.1,82.1,86.1h118.4c45.1,0,82.1-38.8,82.1-86.1V127.2
		C321.9,100.1,308.6,75.2,289.4,59z M283.5,346.7c0,25.6-20,45.8-43.7,45.8H121.4c-24.4,0-43.7-20.9-43.7-45.8V127.2
		c0-25.6,20-45.8,43.7-45.8h118.4c24.4,0,43.7,20.9,43.7,45.8V346.7z"/>
	<path class="st8" d="M124.4,117.1c-5.9,0-11.1,5.4-11.1,11.6v112.5c0,6.2,5.2,11.6,11.1,11.6c5.9,0,11.1-5.4,11.1-11.6V128.8
		C135.5,122.6,130.3,117.1,124.4,117.1z"/>
	<path class="st8" d="M124.4,269.9c-5.9,0-11.1,5.4-11.1,11.6V335c0,6.2,5.2,11.6,11.1,11.6c5.9,0,11.1-5.4,11.1-11.6v-53.5
		C135.5,275.4,130.3,269.9,124.4,269.9z"/>
</g>
</svg>
