<?xml version="1.0" encoding="utf-8"?>
<!-- Generator: Adobe Illustrator 25.2.1, SVG Export Plug-In . SVG Version: 6.00 Build 0)  -->
<svg version="1.1" id="Calque_1" focusable="false" xmlns="http://www.w3.org/2000/svg" xmlns:xlink="http://www.w3.org/1999/xlink"
	 x="0px" y="0px" viewBox="0 0 496 512" style="enable-background:new 0 0 496 512;" xml:space="preserve">
<style type="text/css">
	.st0{fill:#EDF1F2;}
</style>
<path class="st0" d="M248,8C111,8,0,119,0,256s111,248,248,248s248-111,248-248S385,8,248,8z M136,208c0-17.7,14.3-32,32-32
	s32,14.3,32,32s-14.3,32-32,32S136,225.7,136,208z M248,416c-35.3,0-64-28.7-64-64s28.7-64,64-64s64,28.7,64,64S283.3,416,248,416z
	 M328,240c-17.7,0-32-14.3-32-32s14.3-32,32-32s32,14.3,32,32S345.7,240,328,240z"/>
</svg>
