<?xml version="1.0" encoding="utf-8"?>
<!-- Generator: Adobe Illustrator 26.2.1, SVG Export Plug-In . SVG Version: 6.00 Build 0)  -->
<svg version="1.1" id="Calque_1" xmlns="http://www.w3.org/2000/svg" xmlns:xlink="http://www.w3.org/1999/xlink" x="0px" y="0px"
	 viewBox="0 0 55.7 12" style="enable-background:new 0 0 55.7 12;" xml:space="preserve">
<style type="text/css">
	.st0{fill:#010202;}
	.st1{fill:none;}
</style>
<path class="st0" d="M0,9.3V0h1.9v7.8h4.8v1.6H0.1V9.3H0z"/>
<path class="st0" d="M15,9.8l2,0.3c0,0.2,0.1,0.4,0.2,0.5c0.2,0.1,0.4,0.2,0.8,0.2c0.5,0,0.8-0.1,1.1-0.2c0.2-0.1,0.3-0.2,0.4-0.5
	c0.1-0.1,0.1-0.4,0.1-0.8v-1c-0.5,0.7-1.2,1.1-2,1.1c-0.9,0-1.6-0.4-2.2-1.2c-0.4-0.7-0.6-1.4-0.6-2.3c0-1.1,0.3-2,0.8-2.6
	s1.2-0.9,2-0.9s1.5,0.4,2.1,1.1v-1h1.7v6.1c0,0.8-0.1,1.4-0.2,1.8c-0.1,0.4-0.3,0.7-0.6,0.9c-0.2,0.2-0.6,0.4-1,0.5S18.7,12,18.1,12
	c-1.1,0-2-0.2-2.4-0.6C15.2,11,15,10.5,15,9.8C15,9.9,15,9.9,15,9.8z M16.6,5.8c0,0.7,0.1,1.3,0.4,1.6c0.3,0.3,0.6,0.5,1,0.5
	s0.8-0.2,1.1-0.5s0.5-0.9,0.5-1.5c0-0.7-0.1-1.2-0.4-1.6s-0.7-0.5-1.1-0.5c-0.4,0-0.8,0.2-1.1,0.5C16.8,4.6,16.6,5.1,16.6,5.8z"/>
<path class="st0" d="M27.6,9.3v-1c-0.2,0.4-0.6,0.7-1,0.9s-0.8,0.3-1.3,0.3s-0.9-0.1-1.2-0.3c-0.3-0.2-0.6-0.5-0.7-0.9
	c-0.2-0.4-0.2-0.9-0.2-1.5V2.5H25v3.1c0,1,0,1.5,0.1,1.8s0.2,0.4,0.4,0.5c0,0.1,0.3,0.2,0.5,0.2c0.3,0,0.6-0.1,0.8-0.3
	c0.2-0.2,0.4-0.4,0.5-0.6c0.1-0.3,0.1-0.9,0.1-1.8V2.5h1.8v6.8H27.6z"/>
<path class="st0" d="M31,2.5h1.6v0.9c0.6-0.7,1.3-1.1,2.1-1.1c0.4,0,0.8,0.1,1.1,0.3c0.3,0.2,0.6,0.5,0.8,0.8c0.3-0.4,0.6-0.6,1-0.8
	c0.3-0.2,0.7-0.3,1.1-0.3c0.5,0,0.9,0.1,1.3,0.3c0.3,0.2,0.6,0.5,0.8,0.9C40.9,3.8,41,4.3,41,4.9v4.4h-1.8V5.4
	c0-0.7-0.1-1.1-0.2-1.3c-0.2-0.3-0.4-0.4-0.8-0.4c-0.3,0-0.5,0.1-0.7,0.2c-0.2,0.2-0.4,0.4-0.5,0.7S36.9,5.4,36.9,6v3.3h-1.8V5.6
	c0-0.7,0-1.1-0.1-1.3c-0.1-0.2-0.2-0.3-0.3-0.4c-0.1-0.1-0.3-0.1-0.5-0.1c-0.3,0-0.5,0.1-0.7,0.2c-0.2,0.1-0.4,0.4-0.5,0.6
	c-0.2,0.3-0.2,0.7-0.2,1.4v3.3H31V2.5z"/>
<path class="st0" d="M46.6,7.1l1.8,0.3c-0.2,0.7-0.6,1.2-1.1,1.6c-0.5,0.3-1.1,0.5-1.8,0.5c-1.2,0-2-0.4-2.6-1.2
	c-0.4-0.6-0.7-1.4-0.7-2.4c0-1.1,0.3-2,0.9-2.7c0.6-0.6,1.3-1,2.2-1c1,0,1.8,0.3,2.4,1C48.2,4,48.5,5,48.5,6.4H44
	c0,0.5,0.2,1,0.4,1.2C44.7,7.9,45,8,45.4,8c0.4,0.1,0.6,0,0.8-0.1C46.4,7.8,46.5,7.5,46.6,7.1z M46.7,5.3c0-0.5-0.1-0.9-0.4-1.2
	c-0.2-0.2-0.5-0.4-0.9-0.4s-0.7,0.1-1,0.4S44,4.8,44,5.3H46.7z"/>
<path class="st0" d="M49.3,7.4l1.8-0.3c0.1,0.4,0.2,0.6,0.5,0.8c0.2,0.2,0.6,0.3,1,0.3c0.5,0,0.8-0.1,1-0.3c0.2-0.1,0.2-0.3,0.2-0.5
	c0-0.1,0-0.2-0.1-0.3c-0.1-0.1-0.3-0.2-0.6-0.3c-1.4-0.3-2.3-0.6-2.7-0.8c-0.6-0.4-0.8-0.9-0.8-1.6c0-0.6,0.2-1.1,0.7-1.5
	c0.4-0.4,1.1-0.6,2.1-0.6c0.9,0,1.6,0.2,2.1,0.5c0.4,0.3,0.8,0.8,0.9,1.4l-1.7,0.3c0-0.3-0.2-0.5-0.4-0.7c-0.2-0.1-0.5-0.2-0.8-0.2
	c-0.5,0-0.8,0.1-1,0.2c-0.1,0.1-0.2,0.2-0.2,0.4c0,0.1,0.1,0.2,0.2,0.3c0.1,0.1,0.6,0.3,1.6,0.5s1.6,0.5,2,0.8
	c0.4,0.3,0.6,0.8,0.6,1.3c0,0.6-0.3,1.2-0.8,1.6c-0.5,0.5-1.3,0.7-2.3,0.7c-0.9,0-1.6-0.2-2.2-0.6C49.8,8.5,49.5,8,49.3,7.4z"/>
<g>
	<path class="st1" d="M10.6,3.7c-0.4,0-0.7,0.1-1,0.4S9.2,4.8,9.2,5.3h2.7c0-0.5-0.1-0.9-0.4-1.2C11.2,3.8,11,3.7,10.6,3.7z"/>
	<path class="st0" d="M12.6,9c0.5-0.3,0.9-0.8,1.1-1.5l-1.8-0.3c-0.1,0.3-0.2,0.6-0.4,0.7c-0.2,0.2-0.4,0.2-0.7,0.2
		c-0.4,0-0.8-0.1-1-0.4C9.5,7.4,9.4,7,9.4,6.5h4.5c-0.1-1.5-0.4-2.5-1-3.2s-1.4-1-2.4-1c-0.9,0-1.6,0.3-2.2,1C7.7,3.9,7.4,4.8,7.4,6
		c0,0.9,0.2,1.7,0.7,2.4c0.6,0.8,1.4,1.2,2.6,1.2C11.4,9.5,12.1,9.3,12.6,9z M9.3,5.3c0-0.5,0.1-0.9,0.4-1.2c0.3-0.3,0.6-0.4,1-0.4
		s0.7,0.1,0.9,0.4S12,4.8,12,5.3H9.3z"/>
	<polygon class="st0" points="10.4,0 9.7,1.7 10.8,1.7 12.3,0 	"/>
</g>
</svg>
