<?xml version="1.0" encoding="utf-8"?>
<!-- Generator: Adobe Illustrator 26.2.1, SVG Export Plug-In . SVG Version: 6.00 Build 0)  -->
<svg version="1.1" xmlns="http://www.w3.org/2000/svg" xmlns:xlink="http://www.w3.org/1999/xlink" x="0px" y="0px"
	 viewBox="0 0 64.7 12" style="enable-background:new 0 0 64.7 12;" xml:space="preserve">
<style type="text/css">
	.st0{display:none;}
	.st1{display:inline;fill:#010202;}
	.st2{display:inline;}
	.st3{fill:none;}
	.st4{fill:#010202;}
</style>
<g id="Calque_1" class="st0">
	<path class="st1" d="M0,9.3V0h1.9v7.8h4.8v1.6H0.1V9.3H0z"/>
	<path class="st1" d="M15,9.8l2,0.3c0,0.2,0.1,0.4,0.2,0.5c0.2,0.1,0.4,0.2,0.8,0.2c0.5,0,0.8-0.1,1.1-0.2c0.2-0.1,0.3-0.2,0.4-0.5
		c0.1-0.1,0.1-0.4,0.1-0.8v-1c-0.5,0.7-1.2,1.1-2,1.1c-0.9,0-1.6-0.4-2.2-1.2c-0.4-0.7-0.6-1.4-0.6-2.3c0-1.1,0.3-2,0.8-2.6
		s1.2-0.9,2-0.9s1.5,0.4,2.1,1.1v-1h1.7v6.1c0,0.8-0.1,1.4-0.2,1.8c-0.1,0.4-0.3,0.7-0.6,0.9c-0.2,0.2-0.6,0.4-1,0.5
		S18.7,12,18.1,12c-1.1,0-2-0.2-2.4-0.6C15.2,11,15,10.5,15,9.8C15,9.9,15,9.9,15,9.8z M16.6,5.8c0,0.7,0.1,1.3,0.4,1.6
		c0.3,0.3,0.6,0.5,1,0.5s0.8-0.2,1.1-0.5s0.5-0.9,0.5-1.5c0-0.7-0.1-1.2-0.4-1.6s-0.7-0.5-1.1-0.5c-0.4,0-0.8,0.2-1.1,0.5
		C16.8,4.6,16.6,5.1,16.6,5.8z"/>
	<path class="st1" d="M27.6,9.3v-1c-0.2,0.4-0.6,0.7-1,0.9s-0.8,0.3-1.3,0.3s-0.9-0.1-1.2-0.3c-0.3-0.2-0.6-0.5-0.7-0.9
		c-0.2-0.4-0.2-0.9-0.2-1.5V2.5H25v3.1c0,1,0,1.5,0.1,1.8s0.2,0.4,0.4,0.5c0,0.1,0.3,0.2,0.5,0.2c0.3,0,0.6-0.1,0.8-0.3
		c0.2-0.2,0.4-0.4,0.5-0.6c0.1-0.3,0.1-0.9,0.1-1.8V2.5h1.8v6.8H27.6z"/>
	<path class="st1" d="M31,2.5h1.6v0.9c0.6-0.7,1.3-1.1,2.1-1.1c0.4,0,0.8,0.1,1.1,0.3c0.3,0.2,0.6,0.5,0.8,0.8
		c0.3-0.4,0.6-0.6,1-0.8c0.3-0.2,0.7-0.3,1.1-0.3c0.5,0,0.9,0.1,1.3,0.3c0.3,0.2,0.6,0.5,0.8,0.9C40.9,3.8,41,4.3,41,4.9v4.4h-1.8
		V5.4c0-0.7-0.1-1.1-0.2-1.3c-0.2-0.3-0.4-0.4-0.8-0.4c-0.3,0-0.5,0.1-0.7,0.2c-0.2,0.2-0.4,0.4-0.5,0.7S36.9,5.4,36.9,6v3.3h-1.8
		V5.6c0-0.7,0-1.1-0.1-1.3c-0.1-0.2-0.2-0.3-0.3-0.4c-0.1-0.1-0.3-0.1-0.5-0.1c-0.3,0-0.5,0.1-0.7,0.2c-0.2,0.1-0.4,0.4-0.5,0.6
		c-0.2,0.3-0.2,0.7-0.2,1.4v3.3H31V2.5z"/>
	<path class="st1" d="M46.6,7.1l1.8,0.3c-0.2,0.7-0.6,1.2-1.1,1.6c-0.5,0.3-1.1,0.5-1.8,0.5c-1.2,0-2-0.4-2.6-1.2
		c-0.4-0.6-0.7-1.4-0.7-2.4c0-1.1,0.3-2,0.9-2.7c0.6-0.6,1.3-1,2.2-1c1,0,1.8,0.3,2.4,1C48.2,4,48.5,5,48.5,6.4H44
		c0,0.5,0.2,1,0.4,1.2C44.7,7.9,45,8,45.4,8c0.4,0.1,0.6,0,0.8-0.1C46.4,7.8,46.5,7.5,46.6,7.1z M46.7,5.3c0-0.5-0.1-0.9-0.4-1.2
		c-0.2-0.2-0.5-0.4-0.9-0.4s-0.7,0.1-1,0.4S44,4.8,44,5.3H46.7z"/>
	<path class="st1" d="M49.3,7.4l1.8-0.3c0.1,0.4,0.2,0.6,0.5,0.8c0.2,0.2,0.6,0.3,1,0.3c0.5,0,0.8-0.1,1-0.3
		c0.2-0.1,0.2-0.3,0.2-0.5c0-0.1,0-0.2-0.1-0.3c-0.1-0.1-0.3-0.2-0.6-0.3c-1.4-0.3-2.3-0.6-2.7-0.8c-0.6-0.4-0.8-0.9-0.8-1.6
		c0-0.6,0.2-1.1,0.7-1.5c0.4-0.4,1.1-0.6,2.1-0.6c0.9,0,1.6,0.2,2.1,0.5c0.4,0.3,0.8,0.8,0.9,1.4l-1.7,0.3c0-0.3-0.2-0.5-0.4-0.7
		c-0.2-0.1-0.5-0.2-0.8-0.2c-0.5,0-0.8,0.1-1,0.2c-0.1,0.1-0.2,0.2-0.2,0.4c0,0.1,0.1,0.2,0.2,0.3c0.1,0.1,0.6,0.3,1.6,0.5
		s1.6,0.5,2,0.8c0.4,0.3,0.6,0.8,0.6,1.3c0,0.6-0.3,1.2-0.8,1.6c-0.5,0.5-1.3,0.7-2.3,0.7c-0.9,0-1.6-0.2-2.2-0.6
		C49.8,8.5,49.5,8,49.3,7.4z"/>
	<g class="st2">
		<path class="st3" d="M10.6,3.7c-0.4,0-0.7,0.1-1,0.4S9.2,4.8,9.2,5.3h2.7c0-0.5-0.1-0.9-0.4-1.2C11.2,3.8,11,3.7,10.6,3.7z"/>
		<path class="st4" d="M12.6,9c0.5-0.3,0.9-0.8,1.1-1.5l-1.8-0.3c-0.1,0.3-0.2,0.6-0.4,0.7c-0.2,0.2-0.4,0.2-0.7,0.2
			c-0.4,0-0.8-0.1-1-0.4C9.5,7.4,9.4,7,9.4,6.5h4.5c-0.1-1.5-0.4-2.5-1-3.2s-1.4-1-2.4-1c-0.9,0-1.6,0.3-2.2,1
			C7.7,3.9,7.4,4.8,7.4,6c0,0.9,0.2,1.7,0.7,2.4c0.6,0.8,1.4,1.2,2.6,1.2C11.4,9.5,12.1,9.3,12.6,9z M9.3,5.3c0-0.5,0.1-0.9,0.4-1.2
			c0.3-0.3,0.6-0.4,1-0.4s0.7,0.1,0.9,0.4S12,4.8,12,5.3H9.3z"/>
		<polygon class="st4" points="10.4,0 9.7,1.7 10.8,1.7 12.3,0 		"/>
	</g>
</g>
<g id="Calque_2" class="st0">
	
		<text transform="matrix(0.9859 0 0 1 -9.822845e-05 -8.5828)" class="st2" style="font-family:'Arial-BoldMT'; font-size:16.678px;">Fruits</text>
	<g class="st2">
		<path d="M0,11.9V0h8.1v2H2.4v2.8h4.9v2H2.4v5.1H0z"/>
		<path d="M12.2,11.9H9.9V3.3H12v1.2c0.4-0.6,0.7-1,1-1.1c0.3-0.2,0.6-0.3,1-0.3c0.5,0,1,0.1,1.5,0.4l-0.7,2
			c-0.4-0.2-0.7-0.4-1.1-0.4c-0.3,0-0.6,0.1-0.8,0.3c-0.2,0.2-0.4,0.5-0.5,1c-0.1,0.5-0.2,1.4-0.2,2.9V11.9z"/>
		<path d="M22,11.9v-1.3c-0.3,0.5-0.7,0.8-1.2,1.1c-0.5,0.3-1,0.4-1.6,0.4c-0.6,0-1.1-0.1-1.5-0.4s-0.8-0.6-1-1.1
			c-0.2-0.5-0.3-1.1-0.3-1.9V3.3h2.3v4c0,1.2,0,2,0.1,2.2c0.1,0.3,0.2,0.5,0.5,0.7c0.2,0.2,0.5,0.2,0.8,0.2c0.4,0,0.7-0.1,1-0.3
			c0.3-0.2,0.5-0.5,0.6-0.8s0.2-1.1,0.2-2.3V3.3h2.3v8.6H22z"/>
		<path d="M26.5,2.1V0h2.3v2.1H26.5z M26.5,11.9V3.3h2.3v8.6H26.5z"/>
		<path d="M34.9,3.3v1.8h-1.5v3.5c0,0.7,0,1.1,0,1.2c0,0.1,0.1,0.2,0.2,0.3c0.1,0.1,0.2,0.1,0.4,0.1c0.2,0,0.5-0.1,0.9-0.2l0.2,1.8
			c-0.5,0.2-1.1,0.3-1.8,0.3c-0.4,0-0.8-0.1-1.1-0.2c-0.3-0.1-0.6-0.3-0.7-0.5s-0.3-0.5-0.3-0.9c0-0.3-0.1-0.8-0.1-1.6V5.1h-1V3.3h1
			V1.6l2.3-1.3v3.1H34.9z"/>
		<path d="M35.7,9.5L38,9.1c0.1,0.4,0.3,0.8,0.6,1c0.3,0.2,0.7,0.3,1.2,0.3c0.6,0,1-0.1,1.3-0.3c0.2-0.2,0.3-0.4,0.3-0.6
			c0-0.2-0.1-0.3-0.2-0.4c-0.1-0.1-0.4-0.2-0.8-0.3c-1.8-0.4-3-0.8-3.5-1.1c-0.7-0.5-1-1.1-1-1.9c0-0.7,0.3-1.4,0.9-1.9
			c0.6-0.5,1.5-0.8,2.7-0.8c1.2,0,2,0.2,2.6,0.6c0.6,0.4,1,1,1.2,1.7l-2.1,0.4C41.2,5.4,41,5.2,40.7,5c-0.3-0.2-0.6-0.3-1.1-0.3
			c-0.6,0-1,0.1-1.3,0.3c-0.2,0.1-0.3,0.3-0.3,0.5c0,0.2,0.1,0.3,0.2,0.4c0.2,0.2,0.9,0.4,2.1,0.6c1.2,0.3,2,0.6,2.5,1
			c0.5,0.4,0.7,1,0.7,1.7c0,0.8-0.3,1.5-1,2c-0.7,0.6-1.6,0.9-2.9,0.9c-1.2,0-2.1-0.2-2.8-0.7C36.4,10.9,35.9,10.3,35.7,9.5z"/>
	</g>
</g>
<g id="Calque_3">
	<text transform="matrix(0.9859 0 0 1 9.1795 -6.5168)" style="font-family:'Arial-BoldMT'; font-size:16.678px;">Produits</text>
	<g>
		<path d="M0,11.9V0h3.8c1.4,0,2.4,0.1,2.8,0.2c0.7,0.2,1.2,0.6,1.7,1.2C8.8,1.9,9,2.7,9,3.7C9,4.4,8.9,5,8.6,5.5S8,6.4,7.6,6.7
			C7.2,7,6.8,7.2,6.4,7.3C5.8,7.4,5,7.4,3.9,7.4H2.4v4.5H0z M2.4,2v3.4h1.3c0.9,0,1.6-0.1,1.9-0.2s0.6-0.3,0.7-0.6s0.3-0.6,0.3-0.9
			c0-0.4-0.1-0.8-0.4-1.1s-0.6-0.5-1-0.5C5,2,4.4,2,3.5,2H2.4z"/>
		<path d="M13.1,11.9h-2.3V3.3H13v1.2c0.4-0.6,0.7-1,1-1.1s0.6-0.3,1-0.3c0.5,0,1,0.1,1.5,0.4l-0.7,2c-0.4-0.2-0.7-0.4-1.1-0.4
			c-0.3,0-0.6,0.1-0.8,0.3c-0.2,0.2-0.4,0.5-0.5,1s-0.2,1.4-0.2,2.9V11.9z"/>
		<path d="M16.8,7.5c0-0.8,0.2-1.5,0.6-2.2C17.8,4.6,18.3,4,19,3.7c0.7-0.4,1.4-0.6,2.3-0.6c1.3,0,2.3,0.4,3.2,1.3s1.2,1.9,1.2,3.2
			c0,1.3-0.4,2.4-1.2,3.3c-0.8,0.9-1.9,1.3-3.1,1.3c-0.8,0-1.5-0.2-2.2-0.5s-1.2-0.9-1.6-1.6C17,9.3,16.8,8.5,16.8,7.5z M19.1,7.6
			c0,0.9,0.2,1.5,0.6,2c0.4,0.5,0.9,0.7,1.5,0.7s1.1-0.2,1.5-0.7s0.6-1.1,0.6-2c0-0.8-0.2-1.5-0.6-2S21.8,5,21.2,5s-1.1,0.2-1.5,0.7
			C19.3,6.1,19.1,6.8,19.1,7.6z"/>
		<path d="M35.2,11.9h-2.1v-1.3c-0.3,0.5-0.8,0.9-1.2,1.1s-1,0.4-1.4,0.4c-1,0-1.8-0.4-2.5-1.2c-0.7-0.8-1-1.9-1-3.4
			c0-1.5,0.3-2.6,1-3.3s1.5-1.1,2.6-1.1c1,0,1.8,0.4,2.5,1.2V0h2.3V11.9z M29.2,7.4c0,0.9,0.1,1.6,0.4,2c0.4,0.6,0.9,0.9,1.5,0.9
			c0.5,0,1-0.2,1.3-0.7s0.5-1.1,0.5-2c0-1-0.2-1.7-0.5-2.1c-0.4-0.4-0.8-0.7-1.4-0.7c-0.5,0-1,0.2-1.3,0.6S29.2,6.6,29.2,7.4z"/>
		<path d="M43,11.9v-1.3c-0.3,0.5-0.7,0.8-1.2,1.1c-0.5,0.3-1,0.4-1.6,0.4c-0.6,0-1.1-0.1-1.5-0.4s-0.8-0.6-1-1.1
			c-0.2-0.5-0.3-1.1-0.3-1.9V3.3h2.3v4c0,1.2,0,2,0.1,2.2c0.1,0.3,0.2,0.5,0.5,0.7c0.2,0.2,0.5,0.2,0.8,0.2c0.4,0,0.7-0.1,1-0.3
			c0.3-0.2,0.5-0.5,0.6-0.8s0.2-1.1,0.2-2.3V3.3h2.3v8.6H43z"/>
		<path d="M47.5,2.1V0h2.3v2.1H47.5z M47.5,11.9V3.3h2.3v8.6H47.5z"/>
		<path d="M56,3.3v1.8h-1.5v3.5c0,0.7,0,1.1,0,1.2c0,0.1,0.1,0.2,0.2,0.3c0.1,0.1,0.2,0.1,0.4,0.1c0.2,0,0.5-0.1,0.9-0.2l0.2,1.8
			c-0.5,0.2-1.1,0.3-1.8,0.3c-0.4,0-0.8-0.1-1.1-0.2c-0.3-0.1-0.6-0.3-0.7-0.5s-0.3-0.5-0.3-0.9c0-0.3-0.1-0.8-0.1-1.6V5.1h-1V3.3h1
			V1.6l2.3-1.3v3.1H56z"/>
		<path d="M56.7,9.5L59,9.1c0.1,0.4,0.3,0.8,0.6,1c0.3,0.2,0.7,0.3,1.2,0.3c0.6,0,1-0.1,1.3-0.3c0.2-0.2,0.3-0.4,0.3-0.6
			c0-0.2-0.1-0.3-0.2-0.4c-0.1-0.1-0.4-0.2-0.8-0.3c-1.8-0.4-3-0.8-3.5-1.1c-0.7-0.5-1-1.1-1-1.9c0-0.7,0.3-1.4,0.9-1.9
			c0.6-0.5,1.5-0.8,2.7-0.8c1.2,0,2,0.2,2.6,0.6c0.6,0.4,1,1,1.2,1.7l-2.1,0.4C62.2,5.4,62,5.2,61.8,5c-0.3-0.2-0.6-0.3-1.1-0.3
			c-0.6,0-1,0.1-1.3,0.3c-0.2,0.1-0.3,0.3-0.3,0.5c0,0.2,0.1,0.3,0.2,0.4c0.2,0.2,0.9,0.4,2.1,0.6c1.2,0.3,2,0.6,2.5,1
			c0.5,0.4,0.7,1,0.7,1.7c0,0.8-0.3,1.5-1,2c-0.7,0.6-1.6,0.9-2.9,0.9c-1.2,0-2.1-0.2-2.8-0.7C57.4,10.9,56.9,10.3,56.7,9.5z"/>
	</g>
</g>
</svg>
