<?xml version="1.0" encoding="UTF-8"?><svg xmlns="http://www.w3.org/2000/svg" viewBox="0 0 1108.89 896.87"><defs><style>.c{fill:#fff;}.d{fill:none;}.e{fill:#8aed21;}</style></defs><g id="a"><circle class="d" cx="625.2" cy="610.87" r="256"/></g><g id="b"><g><path class="c" d="M497.98,771.57h56.92l4.61-15.14c-17.17-7.51-32.99-17.56-46.95-29.68l-14.59,44.82Z"/><path class="e" d="M787.69,534.09c7.77,.46,15.2,1.43,22.29,2.92-2.08-7.27-4.6-14.35-7.53-21.22-3.31,5.71-7.45,11.08-12.45,16.1-.75,.76-1.53,1.48-2.31,2.2Z"/><path class="e" d="M727.2,602.85c-13.92,13.4-20.87,30.48-20.87,51.23s6.86,38.08,20.58,51.65c8.67,8.58,18.88,14.43,30.63,17.59,36.26-33.3,59.1-80.96,59.54-133.97-12.4-4.38-24.43-6.6-36.11-6.6-21.93,0-39.86,6.7-53.77,20.1Z"/><path class="e" d="M616.87,503.91v-99.33c-93.98,8.23-167.69,87.12-167.69,183.23,0,55.47,24.56,105.21,63.39,138.94l72.52-222.84h31.79Z"/><path class="e" d="M571.01,718.69l-11.49,37.74c22.55,9.86,47.44,15.34,73.62,15.34,17.32,0,34.08-2.4,49.96-6.87l-15.53-46.21h-96.57Z"/><path class="e" d="M747.78,478.95c0-10.92-3.48-18.52-10.44-22.78-6.96-4.26-18.85-6.39-35.65-6.39h-22.15v58.34h29.17c26.05,0,39.07-9.72,39.07-29.17Z"/><polygon class="e" points="616.92 567.9 616.87 568.05 585.24 671.94 651.87 671.94 646.26 655.24 616.92 567.9"/><path class="c" d="M726.9,705.72c-13.72-13.57-20.58-30.79-20.58-51.65s6.96-37.82,20.87-51.23c13.92-13.4,31.84-20.1,53.77-20.1,11.67,0,23.71,2.21,36.11,6.6,0-.51,.02-1.02,.02-1.53,0-17.62-2.48-34.66-7.11-50.79-7.09-1.49-14.52-2.47-22.29-2.92,.78-.72,1.56-1.44,2.31-2.2,5-5.02,9.14-10.39,12.45-16.1-28.02-65.8-93.28-111.94-169.32-111.94-5.48,0-10.9,.25-16.26,.72v99.33h-31.79l-72.52,222.84c13.96,12.13,29.77,22.17,46.95,29.68l11.49-37.74h96.57l15.53,46.21c28.12-7.92,53.51-22.36,74.43-41.58-11.75-3.16-21.96-9.01-30.63-17.59Zm-141.66-33.79l31.63-103.89,.04-.15,29.34,87.33,5.61,16.7h-66.63Zm94.29-222.15h22.15c16.8,0,28.69,2.13,35.65,6.39,6.96,4.26,10.44,11.86,10.44,22.78,0,19.45-13.03,29.17-39.07,29.17h-29.17v-58.34Z"/></g></g></svg>