<?xml version="1.0" encoding="UTF-8"?><svg xmlns="http://www.w3.org/2000/svg" viewBox="0 0 1108.89 945.55"><defs><style>.c{fill:#fff;}.d{letter-spacing:-.05em;}.e{letter-spacing:0em;}.f{font-family:MyriadPro-Regular, Myriad Pro;font-size:64.77px;}.g{fill:#8aed21;}</style></defs><g id="a"/><g id="b"><g><path class="c" d="M436.57,866.59h78.6l6.37-20.91c-23.71-10.37-45.55-24.24-64.82-40.98l-20.14,61.89Z"/><path class="g" d="M836.6,538.69c10.73,.63,20.99,1.98,30.78,4.04-2.88-10.04-6.36-19.82-10.4-29.3-4.58,7.88-10.29,15.3-17.2,22.23-1.04,1.04-2.11,2.04-3.19,3.04Z"/><path class="g" d="M753.07,633.63c-19.22,18.51-28.82,42.09-28.82,70.74s9.47,52.58,28.42,71.32c11.97,11.84,26.07,19.93,42.3,24.29,50.06-45.98,81.61-111.8,82.21-184.99-17.12-6.05-33.74-9.11-49.85-9.11-30.28,0-55.03,9.26-74.25,27.76Z"/><path class="g" d="M600.73,497.01v-137.16c-129.76,11.37-231.55,120.29-231.55,253.01,0,76.6,33.91,145.27,87.53,191.84l100.13-307.69h43.89Z"/><path class="g" d="M537.4,793.58l-15.87,52.11c31.13,13.61,65.51,21.18,101.66,21.18,23.91,0,47.05-3.31,68.99-9.49l-21.44-63.8h-133.34Z"/><path class="g" d="M781.49,462.55c0-15.08-4.81-25.57-14.42-31.45-9.61-5.88-26.02-8.83-49.23-8.83h-30.58v80.56h40.28c35.97,0,53.95-13.43,53.95-40.28Z"/><polygon class="g" points="600.79 585.37 600.73 585.57 557.06 729.03 649.06 729.03 641.31 705.96 600.79 585.37"/><path class="c" d="M752.66,775.68c-18.94-18.74-28.42-42.51-28.42-71.32s9.6-52.23,28.82-70.74c19.21-18.5,43.96-27.76,74.25-27.76,16.11,0,32.74,3.06,49.85,9.11,0-.71,.03-1.41,.03-2.12,0-24.33-3.43-47.86-9.81-70.14-9.79-2.06-20.05-3.41-30.78-4.04,1.08-.99,2.15-1.99,3.19-3.04,6.91-6.93,12.62-14.35,17.2-22.23-38.7-90.86-128.8-154.57-233.8-154.57-7.57,0-15.06,.35-22.46,1v137.16h-43.89l-100.13,307.69c19.28,16.74,41.11,30.62,64.82,40.98l15.87-52.11h133.34l21.44,63.8c38.83-10.93,73.88-30.87,102.78-57.41-16.23-4.36-30.33-12.45-42.3-24.29Zm-195.61-46.65l43.68-143.45,.06-.2,40.52,120.59,7.75,23.06h-92Zm130.2-306.75h30.58c23.2,0,39.61,2.95,49.23,8.83,9.61,5.89,14.42,16.37,14.42,31.45,0,26.85-17.99,40.28-53.95,40.28h-40.28v-80.56Z"/></g><text class="f" transform="translate(436.45 929.36)"><tspan x="0" y="0">i</tspan><tspan class="e" x="15.16" y="0">c</tspan><tspan x="43.78" y="0">onifie</tspan><tspan class="d" x="196.77" y="0">r</tspan><tspan x="214.51" y="0">.net</tspan></text></g></svg>