<?xml version="1.0" encoding="utf-8"?>
<!-- Generator: Adobe Illustrator 25.2.1, SVG Export Plug-In . SVG Version: 6.00 Build 0)  -->
<svg version="1.1" id="Calque_1" xmlns="http://www.w3.org/2000/svg" xmlns:xlink="http://www.w3.org/1999/xlink" x="0px" y="0px"
	 viewBox="0 0 16 16" style="enable-background:new 0 0 16 16;" xml:space="preserve">
<style type="text/css">
	.st0{fill:#FFFFFF;}
</style>
<g>
	<path class="st0" d="M3,14.9h2.1l0.2-0.6c-0.6-0.3-1.2-0.7-1.8-1.1L3,14.9z"/>
	<path d="M13.9,6c0.3,0,0.6,0.1,0.8,0.1c-0.1-0.3-0.2-0.5-0.3-0.8C14.4,5.5,14.2,5.7,13.9,6C14,5.9,14,6,13.9,6z"/>
	<path d="M11.7,8.6c-0.5,0.5-0.8,1.1-0.8,1.9c0,0.8,0.3,1.4,0.8,1.9c0.3,0.3,0.7,0.5,1.2,0.7c1.4-1.3,2.2-3,2.2-5
		c-0.5-0.2-0.9-0.2-1.4-0.2C12.9,7.8,12.2,8.1,11.7,8.6z"/>
	<path d="M7.5,4.8V1.1C4,1.4,1.2,4.3,1.2,8c0,2.1,0.9,4,2.4,5.2l2.7-8.4H7.5z"/>
	<path d="M5.8,12.9l-0.4,1.4c0.8,0.4,1.8,0.6,2.8,0.6c0.7,0,1.3-0.1,1.9-0.3l-0.6-1.7H5.8z"/>
	<path d="M12.4,3.9c0-0.4-0.1-0.7-0.4-0.9c-0.3-0.2-0.7-0.2-1.3-0.2H9.9V5H11C11.9,5,12.4,4.6,12.4,3.9z"/>
	<polygon points="7.5,7.2 7.5,7.2 6.3,11.2 8.8,11.2 8.6,10.5 	"/>
	<path class="st0" d="M11.7,12.4c-0.5-0.5-0.8-1.2-0.8-1.9c0-0.8,0.3-1.4,0.8-1.9c0.5-0.5,1.2-0.8,2-0.8c0.4,0,0.9,0.1,1.4,0.2
		c0,0,0,0,0-0.1c0-0.7-0.1-1.3-0.3-1.9C14.5,6,14.2,6,13.9,6C14,6,14,5.9,14,5.9c0.2-0.2,0.3-0.4,0.5-0.6C13.4,2.8,11,1.1,8.1,1.1
		c-0.2,0-0.4,0-0.6,0v3.7H6.3l-2.7,8.4c0.5,0.5,1.1,0.8,1.8,1.1l0.4-1.4h3.6l0.6,1.7c1.1-0.3,2-0.8,2.8-1.6
		C12.4,13,12,12.8,11.7,12.4z M6.3,11.2l1.2-3.9l0,0l1.1,3.3l0.2,0.6H6.3z M9.9,2.8h0.8c0.6,0,1.1,0.1,1.3,0.2
		c0.3,0.2,0.4,0.4,0.4,0.9C12.4,4.6,11.9,5,11,5H9.9V2.8z"/>
</g>
</svg>
